<?xml version="1.0" encoding="utf-8"?>
<!-- Generator: Adobe Illustrator 27.9.0, SVG Export Plug-In . SVG Version: 6.00 Build 0)  -->
<svg version="1.1" id="Layer_2" xmlns="http://www.w3.org/2000/svg" xmlns:xlink="http://www.w3.org/1999/xlink" x="0px" y="0px"
	 width="1024px" height="768px" viewBox="0 0 1024 768" style="enable-background:new 0 0 1024 768;" xml:space="preserve">
<style type="text/css">
	.st0{fill:#F2CCAC;}
	.st1{fill:#E06F92;}
	.st2{fill:#FFFFFF;}
	.st3{fill:#F9E9DE;}
	.st4{fill:#53A559;}
	.st5{fill:#422B1C;}
	.st6{fill:#D34242;}
	.st7{fill:#C19C80;}
	.st8{fill:#37C5CC;}
	.st9{fill:none;stroke:#422B1C;stroke-miterlimit:10;}
	.st10{fill:#FFFFFF;stroke:#422B1C;stroke-miterlimit:10;}
	.st11{fill:none;stroke:#050505;stroke-miterlimit:10;}
</style>
<g id="Donut">
	<path class="st0" d="M320.5,221.2c-120.5,0-218.1,97.6-218.1,218.1c0,120.5,97.6,218.1,218.1,218.1c120.5,0,218.1-97.6,218.1-218.1
		C538.6,318.8,441,221.2,320.5,221.2z M320.5,504c-35.8,0-64.8-29-64.8-64.8s29-64.8,64.8-64.8c35.8,0,64.8,29,64.8,64.8
		S356.3,504,320.5,504z"/>
	<path class="st1" d="M514,443c7.4-11.8,13-26.7,7.5-39.5c-3.3-7.5-9.9-13-16-18.5c-13.8-12.6-26-27.3-33.3-44.5
		c-5.8-13.8-8.2-28.7-13.7-42.6c-5.5-13.9-15.1-27.3-29.3-31.8c-15.7-5-33,2.1-49.2-1.2c-17.1-3.5-29.7-17.7-45.4-25.4
		c-26.7-13-55.6-10-82-0.2c-11.9,4.4-19.3,22.4-29,30c-10.3,8.1-22.2,6.4-33.8,12.4c-17.3,9-35.2,22.8-36.8,42.3
		c-0.8,10,3,19.9,2.5,30c-1.3,24.2-26.2,40.3-34.4,63.1c-11.5,32,22.9,56.6,21.9,88.4c-0.2,6-1.2,12.1-0.7,18.1
		c0.5,6,2.7,11.8,4.8,17.5c5.4,14.2,12.1,29.4,25.5,36.8c10.9,6,24.3,5.6,35.7,10.7c24.5,11,33.7,44.3,58.9,53.4
		c21.1,7.6,43.8-5,66.2-7.1c14.7-1.4,29.4,1.7,44.1,3.1c5.3,0.5,10.8,0.8,15.8-1c15.7-5.5,18.3-26.1,27.2-40.2
		c11.9-18.7,35.4-25.5,55.2-35.5c3.8-1.9,7.7-4.1,10.3-7.5c2.5-3.2,3.8-7.1,4.9-11c3.2-12,4.6-24.4,4.1-36.8
		c-0.4-8.8-1.7-17.6-0.1-26.3C497.3,466.2,506.6,454.9,514,443z M320.5,504c-35.8,0-64.8-29-64.8-64.8s29-64.8,64.8-64.8
		c35.8,0,64.8,29,64.8,64.8S356.3,504,320.5,504z"/>
	<g id="Sprinkles">
		<path class="st2" d="M231.6,318.9l-16.3,16.3c-3.3,3.3-8.7,3.3-12,0v0c-3.3-3.3-3.3-8.7,0-12l16.3-16.3c3.3-3.3,8.7-3.3,12,0v0
			C235,310.2,235,315.6,231.6,318.9z"/>
		<path class="st2" d="M344.4,268.1l16.3,16.3c3.3,3.3,3.3,8.7,0,12l0,0c-3.3,3.3-8.7,3.3-12,0l-16.3-16.3c-3.3-3.3-3.3-8.7,0-12
			l0,0C335.7,264.8,341,264.8,344.4,268.1z"/>
		<path class="st2" d="M180.2,410l-7.2,21.8c-1.5,4.5-6.3,6.9-10.7,5.4h0c-4.5-1.5-6.9-6.3-5.4-10.7l7.2-21.8
			c1.5-4.5,6.3-6.9,10.7-5.4h0C179.2,400.7,181.6,405.5,180.2,410z"/>
		<path class="st2" d="M233.7,360.6l7.7,21.7c1.6,4.4-0.8,9.3-5.2,10.8l0,0c-4.4,1.6-9.3-0.8-10.8-5.2l-7.7-21.7
			c-1.6-4.4,0.8-9.3,5.2-10.8h0C227.3,353.8,232.1,356.2,233.7,360.6z"/>
		<path class="st2" d="M319.6,335.3l-23-1c-4.7-0.2-8.3-4.2-8.1-8.9v0c0.2-4.7,4.2-8.3,8.9-8.1l23,1c4.7,0.2,8.3,4.2,8.1,8.9v0
			C328.3,331.9,324.3,335.5,319.6,335.3z"/>
		<path class="st2" d="M284.7,547.2l-22.4-5.4c-4.6-1.1-7.4-5.7-6.3-10.3l0,0c1.1-4.6,5.7-7.4,10.3-6.3l22.4,5.4
			c4.6,1.1,7.4,5.7,6.3,10.3l0,0C293.8,545.5,289.2,548.3,284.7,547.2z"/>
		<path class="st2" d="M274.9,590.4L252,593c-4.7,0.5-8.9-2.8-9.4-7.5l0,0c-0.5-4.7,2.8-8.9,7.5-9.4l22.9-2.6
			c4.7-0.5,8.9,2.8,9.4,7.5l0,0C282.9,585.7,279.5,589.9,274.9,590.4z"/>
		<path class="st2" d="M463.4,469.6l-5.4,22.4c-1.1,4.6-5.7,7.4-10.3,6.3l0,0c-4.6-1.1-7.4-5.7-6.3-10.3l5.4-22.4
			c1.1-4.6,5.7-7.4,10.3-6.3h0C461.7,460.4,464.5,465,463.4,469.6z"/>
		<path class="st2" d="M408.3,558.8l-17.1-15.4c-3.5-3.1-3.8-8.5-0.6-12l0,0c3.1-3.5,8.5-3.8,12-0.6l17.1,15.4
			c3.5,3.1,3.8,8.5,0.6,12l0,0C417.2,561.6,411.8,561.9,408.3,558.8z"/>
		<path class="st2" d="M432.4,372.2L453,362c4.2-2.1,9.3-0.4,11.4,3.9l0,0c2.1,4.2,0.4,9.3-3.9,11.4l-20.6,10.2
			c-4.2,2.1-9.3,0.4-11.4-3.9v0C426.4,379.4,428.2,374.3,432.4,372.2z"/>
		<path class="st2" d="M176.4,520.2L197,510c4.2-2.1,9.3-0.4,11.4,3.9v0c2.1,4.2,0.4,9.3-3.9,11.4l-20.6,10.2
			c-4.2,2.1-9.3,0.4-11.4-3.9h0C170.4,527.4,172.2,522.3,176.4,520.2z"/>
		<path class="st2" d="M322.9,597.4l13-19c2.7-3.9,7.9-4.9,11.8-2.2l0,0c3.9,2.7,4.9,7.9,2.2,11.8l-13,19c-2.7,3.9-7.9,4.9-11.8,2.2
			l0,0C321.3,606.6,320.3,601.3,322.9,597.4z"/>
		<path class="st2" d="M223.5,488.1l-13.7-18.4c-2.8-3.8-2-9.1,1.7-11.9h0c3.8-2.8,9.1-2,11.9,1.7l13.7,18.4c2.8,3.8,2,9.1-1.7,11.9
			l0,0C231.6,492.6,226.3,491.8,223.5,488.1z"/>
		<path class="st2" d="M384.5,363.8l-4.8-22.5c-1-4.6,2-9.1,6.5-10.1h0c4.6-1,9.1,2,10.1,6.5l4.8,22.5c1,4.6-2,9.1-6.5,10.1h0
			C390,371.3,385.5,368.4,384.5,363.8z"/>
		<path class="st2" d="M473.8,451.6l-20.5-10.5c-4.2-2.1-5.8-7.3-3.7-11.4l0,0c2.1-4.2,7.3-5.8,11.4-3.7l20.5,10.5
			c4.2,2.1,5.8,7.3,3.7,11.4l0,0C483.1,452.1,478,453.7,473.8,451.6z"/>
		<path class="st2" d="M403.5,498.2l-6.4-22.1c-1.3-4.5,1.3-9.2,5.8-10.5h0c4.5-1.3,9.2,1.3,10.5,5.8l6.4,22.1
			c1.3,4.5-1.3,9.2-5.8,10.5h0C409.5,505.3,404.8,502.7,403.5,498.2z"/>
	</g>
</g>
<g id="Pastry">
	<rect x="775" y="504" class="st0" width="114" height="32"/>
	<rect x="775" y="412" class="st3" width="114" height="67"/>
	<path class="st4" d="M846.9,402.8c0.6,0,1.3,0.2,1.7,0.6c-1.7-2.4-3.3-4.9-5-7.3c0.1-0.7,1.3,0.6,1.9,0.2c0.3-0.2,0.3-0.6,0.2-1
		c-0.8-3.6-1.5-7.2-2.3-10.8c0.3-0.1,0.7,0,1,0.2c-0.5-2.2-1.9-4.3-3.8-5.6c1.5,0.6,2.6,1.8,3.6,3c5.5,6.7,9.3,14.9,11,23.4
		c0.4,1.9,2.4,9.8-1.2,8.6C852.6,413.7,848.4,404.4,846.9,402.8z"/>
	<rect x="775" y="422" class="st0" width="114" height="12"/>
	<path class="st4" d="M861.6,400.9c0.3,0.7,0.1,1.5-0.5,2c2.7-3.1,5.4-6.1,8.1-9.2c-0.1,0.9-0.2,1.8-0.4,2.7c2.5-0.9,5-1.9,7.5-2.8
		c0.6,0.2,0.8,1.1,0.4,1.6c3.8-1.6,7.8-2.8,11.8-3.6c-0.3,0.8-0.8,1.6-1.4,2.2c2.1-0.5,4.2-0.7,6.4-0.6c-1,0.8-2,1.6-3,2.5
		c1.3-0.1,2.6,0.1,3.7,0.6c-2.4,1-4.9,2-7.4,2.8c1.2-0.2,2.6,0.4,3.2,1.5c-1.5,1.3-3.3,2.3-5.2,2.8c0.7,0.6,1.6,1,2.4,1.4
		c-2.8,1.9-6.1,3.1-9.4,3.6c0.8,0.8,1.8,1.5,2.9,1.8c-1.2,1.8-3.7,2-5.9,2c-4.1,0-16.3,2.1-19.5-0.2
		C849.9,408,862.4,403,861.6,400.9z"/>
	<rect x="775" y="479" class="st5" width="114" height="25"/>
	<path class="st6" d="M884,411.6c0.9,0,1.7,0.1,2.6,0.1c1.6,0.1,4,0.1,4.5,2c0.4,1.7-0.9,3.4-0.9,5.1C890,422,892,428,889,430
		s-21.6,0.8-31.9-1.2c-3.5-0.7-7-1.5-10.5-1.3c-3,0.2-5.9,1.1-9,1.4c-3.6,0.3-7.2-0.3-10.7-0.7c-5.2-0.5-10.4-0.5-15.6-0.5
		c-8.2,0-11.1,2.3-19.4,2.3c-2.4,0-6-2-11-2c-3,0-5.8,1.4-7.1-0.2c-0.6-0.7-0.8-1.6-0.9-2.5c-1.1-6.7-3.5-14.1,5-14.3
		c2.6-0.1,8.7,0.3,11.3,0.4c4.5,0.3,9,0,13.5,0.1c18.1,0.1,36.2,0.1,54.3,0.2C866.1,411.8,875,411.4,884,411.6z"/>
	<path class="st6" d="M857.1,449.7c-0.9,0.7-1.4,1.7-1.9,2.6c-5,9.7-8.9,20-11.7,30.6c-0.6,2.3-1.1,4.6-0.9,6.9
		c0.5,5.8,5.7,10.3,11.3,12s11.6,1,17.4,0.4c1.7-0.2,3.5-0.4,4.8-1.4c2.4-1.7,2.8-5.2,3-8.2c0.2-3.6,0.4-7.3,0-10.9
		c-0.3-3.3-1.4-6.3-2.3-9.5c-1.7-6.5-4.4-12.7-8-18.3C866.7,450.4,861.3,446.5,857.1,449.7z"/>
	<path class="st6" d="M829.2,450c2.1,2.4,3,5.6,3.9,8.7c1.6,5.9,3.3,11.7,4.9,17.6c1.1,4,2.2,8,2.2,12.1s-1.3,8.4-4.3,11.2
		c-3.4,3.2-8.5,3.9-13.2,3.6c-6.4-0.4-15.7-1-18.4-7.9c-1.5-3.9-1-8.3-0.3-12.4c1.7-8.9,4.5-17.7,8.5-25.8
		C815.6,450.9,822.6,442.3,829.2,450z"/>
	<path class="st6" d="M889,457.9c-0.3-1.5-0.7-2.6-1.3-2.8c-3,6.6-4.3,15-5.5,22.1c-0.8,4.9-1.3,10-0.1,14.8
		c1.2,4.8,2.3,10.1,6.9,12V457.9z"/>
	<path class="st6" d="M798.7,479.2c-0.7-2.9-0.8-5.8-1.6-8.7c-1.4-5.7-3.3-12.1-7.5-16.4c-3.1-3.2-7-4.1-11.9-0.7
		c-1.2,0.8-2.1,3-2.8,5.3V503c7.3-1.7,14.6,2.4,21.1-2.9c3.1-2.6,5-6.6,4.9-10.6C801,485.9,799.6,482.6,798.7,479.2z"/>
</g>
<g id="Waffle">
	<path class="st0" d="M784.5,221.6c43.7-3.9,87.8,0.6,131.7-1c4.3-0.2,8.7-0.3,12.6,1.4c3.9,1.8,6.9,6.2,5.6,10.2
		c-5.1,15.8-14.5,33.5-23.8,47.2c-10.5,15.6-25.3,28.7-37.9,42.6c-13.3,14.7-28,28.2-44.3,39.5c-8.4,5.9-17.3,11.1-26.5,15.7
		c-4.7,2.3-19.9,12.3-24.5,7c-1.4-1.6-1.6-4-1.7-6.2c-0.6-13.6-1.2-27.3-1.8-40.9c-0.6-12.6-1.1-25.1-0.5-37.7
		c0.4-7.4,1.2-14.8,1.2-22.2c0-12.2-2.2-24.3-2.3-36.4C771.9,229.2,771.8,222.7,784.5,221.6z"/>
	<path class="st7" d="M784.1,261.3c0,1.1,0,2.2,0.5,3.1c0.4,0.7,1.2,1.2,2,1.5c3.8,1.8,8.1,1.8,12.3,1.8c3.9,0,7.8,0,11.7-0.1
		c1.5,0,3.1,0,4.4-0.8c2.5-1.5,2.9-4.9,2.9-7.8c-0.2-7.2-1.6-14.2-3.1-21.2c-0.4-1.7-0.8-3.6-1.9-4.9c-1.9-2.3-5.4-2.6-8.4-2.7
		c-2.4-0.1-4.7-0.2-7.1-0.3c-6.6-0.2-11.2,0.1-12.6,6.9C783.3,244.5,784.3,253.5,784.1,261.3z"/>
	<path class="st7" d="M785.7,302.4c0.6,4.6,2,9.6,6,11.9c1.8,1,3.9,1.3,5.9,1.4c3.8,0.2,7.7-0.1,11.4-0.9c3.3-0.7,6.9-2.3,7.8-5.5
		c0.3-1,0.2-2,0.2-3c-0.2-5.5-0.4-11.1-0.6-16.6c-0.1-3.7-0.5-7.9-3.4-10.2c-1.4-1.1-3.2-1.5-4.9-1.9c-5.8-1.1-11.7-1.3-17.6-0.4
		C781.2,278.5,784.8,295.8,785.7,302.4z"/>
	<path class="st7" d="M785.9,359.8c1,3.6,2.8,6.1,5.5,6.4c3.4,0.4,6.6-1.2,9.6-2.8c3.9-2,7.8-4.1,11.8-6.1c1.1-0.6,2.2-1.2,3-2.2
		c0.8-1.1,1-2.6,1.1-4c0.7-6.7,1.4-13.4,0.7-20c-0.1-1.4-0.4-2.9-1.1-4c-1.8-2.8-5.8-2.9-9.1-2.4c-7.1,1-17.4-4.1-20.7,5.7
		C785,335.1,783.3,350.8,785.9,359.8z"/>
	<path class="st7" d="M827.4,258.1c0.1,1.8,0.3,3.8,1.7,5.1c1.2,1.2,3.1,1.4,4.8,1.5c8.1,0.6,27.8,3.2,29.4-9
		c0.5-3.5-1.2-6.8-1.9-10.2c-0.9-4.7-0.5-10.9-4.8-14.2c-2.4-1.8-5.8-1.7-8.8-1.5c-5.1,0.4-11.6-0.3-16.1,2.8
		C824.9,237.2,826.9,251.2,827.4,258.1z"/>
	<path class="st7" d="M827.9,301.8c0.8,3.1,2.3,5.7,4.9,7.2c2.1,1.1,4.6,1.1,7,1.1c4.9-0.1,9.8-0.6,14.6-1.3c2.9-0.4,6.1-1,8.2-3.1
		c4-4,3-12.4,2.6-17.6c-0.2-3.5-1.4-10.4-3.4-13.3c-3.3-4.8-10.7-2.3-15.4-1.7c-2.7,0.3-5.3,0.7-8,1c-6.5,0.8-9.5,1.6-10.2,7.9
		C827.7,286.9,826.3,295.5,827.9,301.8z"/>
	<path class="st7" d="M875.2,251.2c-0.3,2.6-0.4,5.5,1.5,7.2c1.4,1.2,3.3,1.2,5.1,1.3c4.5,0.1,9,0.1,13.5,0.2c1.9,0,3.9,0,5.7-0.5
		c4.8-1.4,7.9-6.1,10.3-10.5c1.5-2.6,2.9-5.4,3.2-8.4c0.3-3-0.6-6.3-3.1-8.1c-2.9-2.1-8.3-2.2-11.8-2.2c-5.9,0-17.6-1.5-22.8,2.1
		c-4,2.8-1,13.8-1.6,18.5C875.3,251,875.2,251.1,875.2,251.2z"/>
	<path class="st7" d="M833.3,343.8c11.7-2,20.5-11.6,27.6-21.1c0.5-0.7,1.1-1.5,1.2-2.4c0.2-2.5-3-3.6-5.5-3.7
		c-5.9-0.3-18.5,0.1-23.2,4.5C828.6,325.7,831.3,338.2,833.3,343.8z"/>
	<path class="st7" d="M874.4,300.8c0.3,0.8,0.7,1.5,1.2,1.9c0.7,0.6,1.9,0.5,2.2-0.4c8.1-5,13.2-12.4,19.2-19.5
		c1.8-2.1,4.1-3.8,5.8-6c1.7-2.2,2.6-5.4,1.2-7.8c-1.8-3-11.3-0.6-13.9-0.2c-7.6,1.2-13.7,0.7-15,9.3c-0.5,3.4-1,6.7-1.5,10.1
		C873.1,290.6,873,297.2,874.4,300.8z"/>
</g>
<path id="DrinkBottom" class="st5" d="M571,431v185.8c0,12.2,8.9,22.1,20,22.1h136c11,0,20-9.9,20-22.1V431H571z"/>
<path id="DrinkMid" class="st7" d="M747,296c0,0-176,0-176,0c0,37.3,0,74.7,0,112c0,10,0,20.1,0,30.1c0,2.8-0.6,6.4,0,9.1
	c0.8,3.7-0.1,3.2,3.8,5c4.8,2.2,12.5,1.4,17.7,1.5c26.1,0.4,52.2,0.7,78.3,1.1c22.4,0.3,44.9,0.6,67.3-1.9c7.5-0.8,8.7-1,8.9-7.7
	c0.1-3.3,0-6.7,0-10c0-22.5,0-45,0-67.6C747,343.8,747,319.9,747,296z"/>
<path id="DrinkTop" class="st3" d="M747,274.4c-1.2-3-2.4-6.1-2.8-9.3c-0.8-6.9,2.1-13.9,1.7-20.8c-0.6-9.3-9.5-18.9-17.2-23.5
	c-5.4-3.2-11.9-4.2-16.7-8.2c-3.6-3-5.8-7.3-8.9-10.8c-8.1-9.3-27-15.9-38.9-18.2c-16.1-3.1-26.8,14.7-41.3,21
	c-9.5,4.2-21.5,8.4-23.2,18.7c-0.3,1.8-0.2,3.7-0.8,5.4c-2.1,7-11.9,8.9-17.3,12.8c-4.1,2.9-8,6.5-10.7,10.7v46.1
	c11,9.8,20.2,8.5,32,9.3c21,1.4,41.9,0.7,62.7,0.9c24.1,0.3,52.3,1.5,76.5-6c2.3-0.7,3.4-3.4,4.7-5.4V274.4z"/>
<g id="Straw">
	<path class="st2" d="M587.7,107.3c0,0,13.6-3.4,13.6-3.4c10.1,39.8,20.2,79.5,30.3,119.3c0.6,2.5,2.9,6.4,1.1,8.8
		c-1,1.3-2.6,1.9-4,2.7c-2.1,1.3-4,3.1-5.2,5.2c-1,1.7-6.1-15.9-6.3-16.8c-2.8-10.9-5.5-21.7-8.3-32.6
		c-5.8-22.8-11.6-45.7-17.4-68.5C591.3,121.3,587.7,107.3,587.7,107.3z"/>
	<polygon class="st8" points="626.5,203.5 615.7,218 609.5,192.5 619.5,175.5 	"/>
	<polygon class="st8" points="611.4,143.9 600.6,158.5 594.4,132.9 604.4,115.9 	"/>
	<path class="st9" d="M587.7,107.3c0,0,13.6-3.4,13.6-3.4c10.1,39.8,20.2,79.5,30.3,119.3c0.6,2.5,2.9,6.4,1.1,8.8
		c-1,1.3-2.6,1.9-4,2.7c-2.1,1.3-4,3.1-5.2,5.2c-1,1.7-6.1-15.9-6.3-16.8c-2.8-10.9-5.5-21.7-8.3-32.6
		c-5.8-22.8-11.6-45.7-17.4-68.5C591.3,121.3,587.7,107.3,587.7,107.3z"/>
	
		<rect x="560.1" y="101.5" transform="matrix(-0.9099 -0.4149 0.4149 -0.9099 1027.2646 493.5728)" class="st2" width="14.2" height="67.5"/>
	<polygon class="st8" points="583.1,105.6 571.1,109.7 560,133 578,129 587.8,107.7 	"/>
	<polygon class="st8" points="559.3,168 565.4,154.9 546.9,161.8 546.7,162.3 	"/>
	
		<rect x="560.1" y="101.3" transform="matrix(0.9099 0.4149 -0.4149 0.9099 107.1328 -223.0801)" class="st9" width="14" height="67.5"/>
	<path class="st10" d="M574.2,100.4c-0.1-0.6,0.4-1.2,0.8-1.6c0.4-0.4,0.5-0.8,0.8-1.3c0.5-1,1.3-1.9,1.8-2.9c0.2-0.4,0.3-0.7,0.6-1
		s0.7-0.5,1.1-0.4c0.2,0.1,0.3,0.2,0.5,0.3c0.9,0.8,1.5,1.9,2.1,2.9c0.7,1.1,1.3,2.2,1.9,3.3c0.6,1.2,1.2,2.4,1.7,3.6
		c0.3,0.6,0.5,1.2,0.7,1.8c0.1,0.2,0.4,1.6,0.6,1.7c-3.9-1.5-7.5-3.7-11.4-5.3c-0.4-0.1-0.8-0.3-1-0.6
		C574.2,100.7,574.2,100.6,574.2,100.4z"/>
	<path class="st10" d="M601.5,103.5c0.1-3.7-2.5-7.1-4.8-10c-3.1,4.2-6.1,8.8-9.2,13c4.5-0.6,7.8-1.2,12-3H601.5z"/>
	<path class="st10" d="M579.5,92.5c1.8-1.6,4.2-3.1,6.6-3.3c0.2,5.7,1.3,11.6,1.4,17.3c-3-4-4-8-7-13L579.5,92.5z"/>
	<path class="st10" d="M587.5,106.5c1.7-2.3,9.5-11.2,9-14c-0.6-3.3-8.6-5.8-10-3c-1,2,1,12,0.9,14.5L587.5,106.5z"/>
</g>
<rect id="Glass" x="562.8" y="221.2" class="st11" width="192.3" height="436.2"/>
</svg>
