ply
format ascii 1.0
comment VCGLIB generated
element vertex 900
property float x
property float y
property float z
element face 1796
property list uchar int vertex_indices
end_header
-180.372 10.6872 22.2009 
-158.228 110.287 78.175 
-179.609 -32.7245 59.1515 
-177.986 -13.1058 32.7803 
50.978 -187.283 34.5662 
48.7323 -184.846 50.059 
12.4542 49.731 56.489 
25.8953 50.115 1.4369 
-46.403 -186.82 68.4315 
-177.783 91.128 27.6068 
-134.689 177.6 -139.117 
-132.396 172.534 -119.735 
-117.091 168.898 -134.099 
-8.01795 46.4572 23.4644 
-71.951 -116.589 99.1885 
56.0835 -184.375 32.8343 
-153.68 49.5845 127.938 
-113.036 108.235 -40.717 
-166.281 23.9181 -0.717035 
-152.874 79.534 121.887 
-66.7205 -146.717 -24.071 
-82.901 79.7245 41.5498 
-40.5412 -185.507 109.321 
-179.709 65.1975 15.0666 
27.0648 -39.1608 143.162 
151.883 -160.042 -0.294185 
167.412 -155.173 8.2689 
-132.053 -96.0705 -16.7977 
-182.273 -43.264 46.8257 
-123.717 103.586 97.6645 
-180.893 -50.1325 32.1942 
-137.284 -33.565 105.811 
-108.556 -13.2413 107.003 
88.9735 -181.38 18.5117 
63.453 -183.882 15.655 
-126.508 -18.565 104.135 
-39.2685 111.332 -11.0214 
11.0788 39.8485 78.466 
45.3232 56.295 37.674 
65.2805 -16.7055 119.24 
-182.442 65.5825 67.5145 
149.091 -45.0225 -8.76 
-113.081 -35.8457 112.929 
-33.3585 -176.463 -0.270405 
45.6585 -145.13 130.215 
24.5651 -135.4 136.329 
49.3088 17.9869 102.613 
-112.616 -55.024 115.602 
-30.1625 31.1303 67.868 
-88.6115 -28.7603 111.063 
141.09 -13.6552 2.48665 
133.906 -0.412782 1.62041 
-109.52 10.681 94.3075 
77.039 -185.608 62.1665 
-84.1865 -73.2985 112.255 
61.37 -2.91158 106.124 
-69.6495 111.762 23.4458 
-90.017 -12.8659 106.488 
-91.048 -58.453 116.786 
-70.4805 -53.655 111.873 
-78.1295 -42.4002 112.915 
-75.0535 -10.6416 105.183 
-85.953 -158.158 109.805 
38.1408 -1.96667 111.374 
-56.7205 144.583 11.0556 
-125.865 137.794 -41.887 
-134.277 146.872 -53.101 
-138.944 139.762 -52.317 
-56.9365 -9.07545 101.306 
-135.946 96.599 -63.903 
-119.74 93.7905 -44.6678 
-67.929 25.97 76.9175 
108.183 -137.051 -48.759 
111.727 -107.738 -49.381 
-61.4925 -97.538 106.839 
-71.99 -69.8495 110.046 
-119.467 -166.227 84.441 
-53.316 -43.3278 112.596 
-43.0008 -46.897 113.706 
-64.727 10.2535 90.969 
-49.0485 28.3845 76.789 
-62.9295 -29.0735 108.621 
-54.781 -85.2485 108.967 
-36.8353 -26.546 113.41 
59.564 33.763 90.8875 
37.7197 54.1975 55.8845 
155.848 -42.303 25.4018 
-142.936 34.847 136.708 
-33.0978 -77.552 107.728 
-121.046 119.907 -21.6795 
-125.393 115.734 -2.70607 
-134.998 89.812 -42.2725 
-137.965 153.029 -67.4455 
-88.2665 98.4175 46.4562 
-108.557 116.997 55.9905 
-35.389 -139.279 95.344 
60.8335 -49.9515 -77.4415 
-89.842 -156.786 57.4175 
-29.726 -6.7153 104.477 
47.3428 -94.1775 143.877 
-7.99665 12.5403 97.9715 
-20.6611 4.39558 100.405 
-16.5005 -139.717 109.315 
89.7065 -179.275 -29.105 
67.322 -186.374 -46.8022 
48.9108 -32.6418 136.645 
-117.789 147.904 -99.114 
62.2225 53.976 38.1157 
80.156 -1.30624 -42.8843 
-2.41262 -22.7191 112.981 
58.962 -79.0855 142.888 
-118.663 -71.1305 108.614 
-25.5123 24.2157 80.576 
-12.4644 27.634 82.344 
-7.41505 -4.62733 107.864 
165.471 -132.449 79.4845 
-96.1055 -187.359 58.3975 
71.076 -99.9885 -75.246 
18.0864 -15.2113 112.865 
10.1424 -159.256 126.326 
-2.05887 146.266 -29.7855 
-6.03075 -32.471 127.615 
57.001 55.898 50.7895 
7.60465 -141.707 129.445 
-7.008 -148.128 123.222 
34.423 34.971 91.4305 
13.5595 7.2991 106.103 
7.98155 -110.345 138.609 
27.3715 -112.553 143.833 
22.6083 -91.7885 145.786 
10.8097 -60.6915 145.245 
-141.253 105.83 -88.97 
-134.074 104.19 -105.414 
44.429 -77.9345 145.939 
132.863 -43.389 97.5285 
193.181 -120.818 28.3145 
184.511 -92.263 28.6518 
55.567 -58.6055 144.139 
159.378 -147.973 77.9145 
158.158 -167.08 22.3629 
-138.635 70.2665 118.271 
-127.272 33.0925 133.626 
-75.0665 -186.812 68.931 
-133.609 48.856 131.124 
104.947 -61.8425 122.393 
-126.253 3.53295 102.724 
-127.507 17.0138 128.762 
-120.817 46.297 115.893 
-71.664 -186.854 18.3554 
-108.366 48.7733 103.387 
137.052 -143.143 82.7075 
77.4605 -51.777 134.415 
-24.7124 150.26 -21.3479 
-13.2135 129.021 -9.0736 
-103.034 34.4325 104.807 
175.652 -144.136 4.46187 
-53.8335 -6.6762 -46.0023 
-53.4415 116.441 -9.76635 
137.304 -75.8615 91.661 
67.45 17.2155 98.4285 
-81.931 23.4975 82.467 
-88.732 43.228 90.409 
-110.55 69.4825 91.84 
100.223 -118.985 118.353 
-88.303 1.2667 98.243 
118.646 12.8183 78.5225 
101.065 33.4637 69.6395 
103.025 17.5648 84.5835 
-95.367 59.058 89.6495 
-100.629 82.0165 82.015 
12.5708 137.752 -32.7725 
-111.94 118.893 -65.1085 
145.783 -36.8382 71.511 
137.663 -18.958 75.962 
134.854 -32.8215 85.926 
-184.755 75.8285 54.9375 
-91.3735 -123.35 -17.4757 
-78.8485 -136.723 -18.1492 
169.074 -158.212 45.88 
119.342 -89.757 107.041 
104.212 -97.395 116.071 
128.934 -1.08675 76.13 
93.9755 -93.7895 127.728 
152.996 -66.5265 1.10031 
181.821 -148.727 27.4757 
-115.835 106.334 -54.8765 
158.896 -89.2585 51.4315 
-12.2603 167.887 -32.8797 
1.28842 174.378 -45.1225 
191.69 -102.704 46.1955 
101.343 -170.874 97.1375 
123.429 -30.106 101.539 
124.191 -13.3682 90.059 
-73.0885 134.697 17.8455 
132.361 -107.28 97.396 
-110.254 111.341 6.1866 
-25.2213 -176.969 70.7465 
73.1235 -151.928 119.91 
-10.0809 -174.017 137.123 
120.3 -60.797 109.868 
89.182 -32.539 121.465 
114.021 -136.406 101.321 
75.095 -117.218 131.604 
56.147 -109.572 143.053 
108.733 -42.3582 116.162 
113.448 2.29511 90.69 
-43.8688 131.945 0.388577 
91.7645 -159.885 109.543 
144.539 -104.66 77.5135 
140.976 -93.8925 85.847 
90.161 -72.3805 132.125 
90.0295 -140.215 119.383 
106.449 -79.7465 120.578 
108.925 -18.4372 105.51 
-19.4855 181.456 -40.5905 
97.698 11.4815 93.133 
-40.373 158.159 -3.38575 
-191.798 27.9153 35.2245 
-66.3015 -158.064 -34.7147 
107.445 -81.145 -57.6775 
-88.0085 -132.805 60.6235 
-48.9652 -182.197 -0.91485 
-65.137 -188.014 -1.93323 
-192.992 28.0327 61.482 
-186.646 94.2755 54.378 
-182.734 60.663 87.397 
118.85 -126.769 -39.2692 
-78.7635 94.3095 25.9447 
-103.311 55.4755 -13.2923 
-122.29 103.159 -25.1857 
49.5825 -126.435 139.397 
-181.507 71.394 34.392 
-188.08 53.369 30.081 
-193.181 46.7378 55.1065 
-179.739 -32.761 31.5245 
-173.807 -17.0794 14.4314 
-171.941 -3.26255 19.624 
-172.859 -2.60022 53.0105 
-175.751 -60.505 39.844 
-121.007 159.121 -147.723 
141.78 -85.7915 -17.466 
143 -65.509 -21.2883 
143.036 -96.474 -20.0116 
99.5115 -158.379 -42.2505 
83.6895 -172.615 -49.6095 
84.649 -161.105 -50.0795 
46.9105 -183.072 -35.13 
129.279 -104.073 -34.9243 
121.217 -90.0435 -44.8532 
112.498 -143.22 -32.6235 
-60.708 -91.716 -41.2895 
98.1705 -182.719 -0.5057 
-178.307 78.1925 97.444 
157.372 -66.3165 24.9327 
-25.1297 -176.75 14.1693 
153.152 -38.0665 46.576 
-114.586 155.1 -124.522 
156.727 -68.7665 47.6025 
151.685 -71.3505 68.615 
-93.301 94.235 69.2685 
-64.8345 -74.7115 -45.7957 
146.658 -20.9466 50.497 
-27.0432 33.944 -15.3811 
171.979 -147.344 65.8585 
186.236 -141.396 49.9383 
188.995 -122.171 47.829 
153.701 -53.239 59.232 
-139.856 116.398 13.9562 
125.746 -182.467 33.7347 
137.715 -175.684 36.0192 
-164.445 101.741 89.475 
-123.519 86.4025 -28.6772 
-135.874 112.172 82.776 
175.187 -93.357 46.0575 
-153.863 113.47 31.9543 
-88.124 -146.948 85.104 
-114.988 139.432 -83.2585 
-102.217 -180.779 -15.9011 
-61.745 55.021 31.2425 
-114.339 128.461 -51.6525 
-69.248 -187.514 47.046 
-103.457 98.273 86.912 
-36.9313 38.8345 55.19 
-39.931 42.6808 10.1187 
-75.953 64.3585 38.7915 
-71.956 47.4375 58.995 
-56.263 45.5635 46.2575 
-9.28725 39.561 63.256 
-20.0795 -64.4 136.374 
-9.8573 -43.9145 137.02 
-136.21 150.195 -94.5565 
30.134 17.9118 103.56 
-98.15 116.91 33.2692 
-59.065 161.232 -13.2664 
37.2547 -3.7129 -51.461 
47.442 -18.1573 -52.8 
-169.661 -70.244 54.962 
-130.681 156.861 -100.843 
-125.098 160.219 -109.418 
-57.929 -127.967 103.837 
-48.5778 148.237 -30.6717 
11.4366 25.8442 95.2415 
-79.0485 -115.385 -25.4998 
-173.369 109.854 58.2995 
-60.5095 36.4777 65.1925 
142.227 -6.0358 24.9941 
-142.118 117.826 41.3807 
-125.43 118.108 60.436 
-120.932 117.727 38.3475 
-112.993 116.532 21.7768 
-123.839 145.24 -64.4935 
127.707 14.8617 19.4086 
129.727 9.76765 60.425 
130.732 11.1681 41.8488 
-113.793 114.062 76.883 
118.821 22.2017 55.505 
-31.4972 40.443 38.7692 
-97.1955 -154.225 71.786 
-26.0522 42.0503 22.3461 
37.3895 -22.3389 125.503 
-173.022 -62.0845 11.1639 
0.997045 188.794 -58.298 
12.4154 172.505 -55.303 
-185.114 27.6775 18.3393 
108.884 33.6188 21.6497 
98.1795 34.273 -1.68499 
13.2292 -26.7162 128.874 
-31.641 177.626 -14.9246 
-45.1107 169.923 -12.4755 
107.475 34.8568 46.235 
92.712 41.6855 54.426 
80.1885 40.6732 71.2805 
-174.031 78.952 18.7033 
93.1685 44.5545 36.1413 
78.1245 51.136 49.6082 
-81.039 61.2565 68.2725 
-73.58 -149.402 100.365 
-102.53 -172.512 118.216 
-109.223 -186.029 103.727 
-46.1738 -172.987 116.214 
-8.81515 -112.947 125.351 
-23.426 -162.493 134.145 
-34.8312 11.6229 90.241 
-68.5195 99.531 -4.94058 
-24.8449 -131.482 105.266 
-144.303 117.333 -53.8835 
-55.6395 125.775 -26.2015 
-23.8584 -77.018 123.601 
-41.0042 -165.711 124.531 
-48.9518 -149.878 103.919 
-82.4 -24.6952 -50.139 
-122.886 112.192 -112.084 
-114.926 131.486 -116.992 
-134.255 -65.592 104.712 
-141.824 -50.8555 104.34 
-14.8781 -86.575 132.301 
-3.99717 -98.0535 134.443 
-57.299 -163.042 106.881 
-125.486 -47.0078 112.707 
-134.889 -172.027 7.9355 
-132.458 -173.35 26.606 
-0.90494 -82.724 142.441 
-141.679 99.178 104.747 
-161.615 92.951 103.879 
-11.6755 -177.033 31.8605 
-26.299 -181.429 31.2555 
-17.4929 -98.601 119.896 
-119.938 -179.605 44.3027 
-114.964 -167.23 105.963 
-19.6628 -39.3247 121.999 
-172.015 -40.2967 73.348 
-103.785 -153.112 97.1 
-156.63 -40.5788 90.6455 
-163.163 -58.2725 82.1035 
-137.009 -12.8533 -28.1507 
-179.234 61.8165 108.713 
-177.245 -50.126 61.765 
-168.124 -36.659 74.892 
-28.957 -56.6115 118.823 
-29.213 -149.795 115.962 
-108.977 -30.6435 -44.5143 
-167.793 62.67 125.07 
-62.655 -19.6735 -50.2345 
-187.478 45.195 94.8485 
-105.526 -152.798 19.3974 
-22.782 -84.1785 -81.989 
-178.335 91.5455 82.705 
-166.969 79.439 113.147 
2.35162 -124.392 133.055 
-25.8078 -182.174 42.223 
-35.9065 -186.025 56.434 
-42.7865 -187.885 36.5095 
-148.161 -64.6065 95.8815 
-84.809 122.473 26.1868 
-82.225 141.682 5.77775 
-40.6512 -79.591 -64.829 
-125.999 105.662 -96.5645 
-123.747 143.506 -142.423 
-130.463 141.844 -127.183 
-133.096 156.53 -131.719 
-150.622 124.402 -30.9517 
-152.332 161.583 -104.691 
-154.576 152.465 -89.947 
-189.184 51.908 70.0975 
-189.583 31.0613 82.0685 
-137.695 119.745 -94.049 
-140.714 135.546 -94.171 
0.886825 21.2346 -32.4712 
20.8174 23.4459 -32.8435 
-145.241 130.274 -75.4225 
-142.642 112.29 -70.6365 
-35.8665 -85.0185 -75.6165 
-42.2545 -42.5815 -65.3425 
-30.7973 -138.137 -52.1035 
-53.271 -155.49 -47.359 
-31.0725 -116.979 -60.3215 
-33.3773 -100.964 -67.3035 
-49.5243 -62.433 -53.43 
-63.939 -42.0353 -53.161 
-60.919 -171.868 -40.974 
-115.458 84.413 -14.4104 
-3.6034 146.555 -46.3058 
-38.917 -136.331 -28.12 
-38.1927 -121.267 -37.845 
-39.9055 -102.074 -46.658 
-18.3338 182.559 -23.4869 
115.742 -8.2521 -29.109 
-79.0615 -188.528 -21.4681 
-28.6725 168.155 -39.8628 
-42.6107 -18.572 -52.33 
-117.131 -69.2785 -41.8008 
-145.039 109.745 -37.6927 
58.992 -30.0405 -63.257 
-163.659 -61.617 -9.4814 
18.2358 -31.92 -76.4245 
-4.8753 -32.8558 -71.9795 
-162.113 -40.5585 -11.3807 
-109.376 -161.631 -7.5633 
-149.869 -96.993 11.7265 
-143.008 120.243 -4.68752 
-149.551 104.621 -4.22687 
73.546 -17.5597 -51.3985 
-39.609 -152.769 -54.107 
-25.7467 -161.433 -67.909 
-148.209 -86.298 -11.7947 
-162.548 -79.523 5.1656 
-93.798 130.197 16.0409 
-168.297 92.271 14.6979 
-156.085 88.9775 -3.7867 
-163.264 109.357 17.6441 
-165.822 -20.3571 -6.3625 
-33.7 -31.6938 -64.229 
-165.89 6.5979 6.45815 
-176.861 51.549 6.4207 
31.5 -24.2148 -61.0855 
75.4365 -51.76 -67.8715 
90.766 -57.547 -64.269 
97.3395 -38.0575 -52.609 
85.6145 46.2082 17.0795 
138.947 -117.88 -18.6658 
-69.0605 -185.896 87.5815 
125.809 -22.3021 -27.2938 
136.19 -35.313 -22.521 
-128.174 -81.9405 -35.7537 
121.149 -173.346 -1.36329 
139.339 -175.805 17.2772 
-48.638 -186.771 48.1317 
129.618 -45.0547 -37.2573 
-7.8234 168.731 -53.9745 
156.682 -91.2495 11.5674 
184.26 -124.849 12.4819 
74.1205 44.1335 -3.481 
136.197 -17.3872 -16.553 
-117.104 -157.997 6.238 
64.0665 35.3255 -23.1598 
-93.669 115.028 -3.13425 
-81.2295 91.099 4.94193 
-97.024 94.8345 -0.57629 
-5.3517 129.305 -28.5505 
111.253 -55.3565 -51.733 
79.7045 18.521 -33.343 
26.3305 -45.9642 -86.449 
-102.276 37.1883 -16.0278 
-97.0595 77.518 -4.47753 
-18.1315 -28.9123 -58.5115 
-27.6122 -14.7654 -55.1525 
-84.775 44.0588 -10.887 
-87.404 27.4538 -26.8398 
-93.5205 64.8075 -1.3912 
-70.4285 59.2385 2.5896 
-99.853 14.2976 -34.0163 
44.9845 -38.4308 -78.032 
-68.5875 31.2272 -26.889 
10.6439 34.6268 -17.3526 
-50.7755 -185.978 -40.1188 
-57.161 44.3662 -5.29545 
49.7875 47.512 -4.7941 
-66.617 60.859 16.6835 
-8.99705 -187.863 -53.452 
39.9852 15.6898 -41.9642 
84.8735 32.0795 -16.7703 
-51.6805 -163.148 -62.8945 
130.008 -3.8051 -13.5971 
-32.9425 -2.7294 -46.6435 
181.971 -106.09 8.62875 
-8.4362 36.7137 -10.6091 
159.421 -117.021 -4.8849 
-39.541 19.1327 -31.2757 
-21.2768 23.4963 -27.3873 
-155.038 14.8727 -7.2296 
-167.762 40.3345 -6.488 
-79.3295 -160.653 -22.0669 
-100.386 -168.027 -17.8664 
-69.3865 114.427 -16.0014 
147.192 -137.578 -12.2872 
161.664 -146.413 -6.9949 
-150.832 -66.505 -24.2489 
-129.08 -54.9255 -39.0137 
175.336 -128.91 -3.34862 
-127.114 37.329 -19.0773 
-12.4256 -176.202 -7.7208 
134.941 -162.66 2.0793 
130.542 -149.508 -13.1179 
-132.544 -105.675 -1.74571 
-51.945 -184.749 -71.9195 
-131.887 58.7705 -17.9408 
134.744 -133.703 -15.8933 
-115.973 -3.7217 -36.1857 
-115.148 19.1551 -23.9629 
-143.938 -0.538075 -18.0213 
-154.039 -16.2456 -18.1968 
-142.327 27.1165 -16.302 
-73.724 -56.4325 -50.9065 
-154.715 -32.6908 -22.6161 
-62.758 139.69 -23.7748 
-75.3145 148.766 -6.67155 
-93.3825 -102.288 -28.4525 
-64.4055 -58.3785 -49.476 
-71.0445 -6.4988 -46.7645 
-63.9225 -130.514 -25.9085 
-106.103 -57.6365 -47.6872 
120.045 -74.3115 -45.4195 
129.008 -61.92 -42.0325 
106.154 -159.673 -25.9718 
-177.292 33.3457 3.31783 
-112.632 -93.5455 -30.4753 
-84.093 126.903 -9.0451 
-85.864 -46.0008 -50.7575 
98.025 -169.888 -17.9487 
99.0335 -99.1815 -62.5575 
-23.2177 -175.81 -27.7095 
83.623 -84.019 -69.7775 
-7.8035 -175.542 -31.275 
-94.9335 -146.974 -8.6706 
-80.0025 12.0792 -37.8903 
-87.003 -67.3315 -48.4798 
-145.334 46.2183 -15.3235 
-60.2805 -186.465 -53.2945 
90.2085 -126.525 -64.034 
86.0215 -108.032 -68.798 
99.6805 -115.493 -59.2805 
-92.854 -7.6995 -42.5978 
-79.686 -87.0565 -39.0607 
84.2085 -146.386 -59.7805 
59.266 -80.0055 -82.247 
-55.5605 12.6098 -38.2175 
59.9695 3.12915 -46.3278 
55.7025 -104.086 -79.324 
61.707 -149.434 -67.274 
74.2865 -64.496 -73.1035 
-66.362 -179.167 -60.637 
52.9655 -178.06 -57.077 
50.1695 -136.208 -74.118 
42.993 -59.8505 -85.159 
-168.975 70.5235 4.9862 
44.1185 -118.413 -79.9695 
26.189 -67.6445 -89.666 
37.289 -78.4425 -87.1815 
40.768 -152.132 -69.9205 
-95.7285 101.207 5.5501 
17.7728 -86.5315 -90.8025 
38.602 -96.693 -84.177 
-119.256 -105.65 -15.8064 
-22.9823 -181.651 -69.3915 
-131.145 13.664 -19.7145 
34.79 -175.15 74.678 
97.718 -182.339 44.122 
-110.811 -180.754 83.1405 
-60.1695 -185.105 99.7925 
-75.287 -184.686 109.829 
4.0385 -119.655 -87.2 
0.78323 -110.657 -83.815 
-155.068 67.129 -8.71205 
-153.612 -47.9098 -24.4881 
-107.282 -85.0525 -41.0545 
2.8044 -100.691 -88.2015 
-1.85019 -158.668 -67.413 
-1.69998 -150.154 -71.009 
-15.8882 -130.532 -74.122 
8.69165 156.838 -51.4735 
24.0961 -179.883 -35.8418 
5.0556 -67.1635 -94.615 
-6.13025 -83.4925 -94.189 
-15.2755 -66.786 -85.305 
-3.22682 -177.582 -65.9095 
-1.63786 -43.5257 -87.2175 
-44.7137 -82.256 -50.044 
82.618 -185.767 -9.11955 
66.8395 -186.367 9.29885 
-14.9017 154.813 -46.3563 
-3.46235 -184.755 126.963 
-35.0855 -182.913 125.487 
15.2099 -183.949 125.408 
-112.347 -175.483 62.5245 
-84.616 -105.289 95.28 
77.156 -179.38 -35.078 
133.087 -165.451 74.796 
57.416 -185.577 99.888 
-101.998 -188.796 0.405288 
72.435 -184.855 109.092 
36.0288 -178.854 28.458 
-129.045 99.1815 -81.019 
0.08475 -176.387 15.3328 
23.0989 -173.493 97.802 
11.4929 -175.714 -1.06314 
-143.145 83.0485 -15.9667 
48.2925 -176.827 119.29 
63.3035 -170.322 116.541 
56.9565 -180.303 -8.14665 
81.8265 -185.063 79.632 
36.7783 -187.088 -52.9355 
29.19 -174.294 90.785 
98.282 -184.911 25.936 
34.2887 -174.526 -12.7124 
112.08 -183.23 52.3995 
122.186 -174.581 63.4095 
-3.64602 -176.721 57.9155 
-183.939 38.4015 115.358 
-173.622 8.21975 109.537 
-154.206 -0.075493 96.063 
-168.656 4.9066 87.6825 
150.503 -170.809 40.576 
-3.74855 -175.325 84.928 
-159.762 -83.145 62.6645 
-163.247 -71.631 77.03 
-15.2473 -185.127 113.303 
-163.098 19.1319 124.282 
-145.4 -105.001 34.5245 
-146.619 -13.464 93.941 
-145.988 2.8252 112.317 
-145.583 11.1395 126.95 
52.763 -185.665 108.003 
-132.793 -114.372 30.603 
9.8346 -175.32 -17.3591 
-118.645 -122.587 23.3494 
124.252 -181.43 16.2806 
-150.406 -79.1005 85.2005 
-128.003 -118.301 48.9647 
-142.37 -107.908 48.0067 
-136.203 -111.533 17.2748 
-164.212 -83.8275 33.8553 
-149.98 -97.919 55.0355 
-130.102 -188.053 14.2797 
-106.103 -188.355 20.07 
-133.635 -108.727 61.856 
-138.863 -98.135 77.2955 
-120.162 -109.853 75.575 
-121.31 -100.46 88.7725 
-132.607 -84.516 97 
134.998 -175.695 53.299 
34.1405 -176.184 48.3462 
7.8273 -186.545 -56.687 
-106.109 -187.622 48.9065 
49.771 -184.485 13.4373 
-122.407 -178.932 99.392 
-26.0228 -175.867 85.3125 
-112.349 -187.943 33.4613 
-103.529 -108.194 86.6655 
-105.888 -93.0285 101.939 
-90.5025 -187.908 16.0711 
155.32 -160.721 67.162 
-87.488 -117.426 82.269 
-13.4911 -177.115 54.718 
-114.413 -128.796 30.976 
-61.7 -187.072 -6.61415 
-78.232 -188.212 0.611385 
-53.5565 -180.027 -22.9642 
-68.545 -188.175 -34.6328 
-102.996 -117.581 71.149 
-117.112 -116.214 63.065 
-85.0965 -185.85 96.831 
70.6235 -186.15 -20.5462 
14.1635 -176.354 37.599 
24.5396 -175.803 14.2752 
54.435 -179.542 67.5295 
-32.6275 -176.092 -18.1882 
-39.9865 -176.053 -33.1567 
-57.0835 -188.113 22.4505 
-32.908 -183.759 -45.598 
-49.9422 -186.7 29.3945 
-124.179 -115.536 9.9085 
-108.062 -121.018 0.399512 
-34.1338 -176.948 12.498 
-150.238 -89.1215 69.5525 
-21.5566 -174.789 98.709 
4.74075 -179.14 105.486 
30.6595 -185.517 110.049 
54.1105 -185.003 96.459 
56.932 -174.064 83.8865 
28.9317 -184.77 104.533 
-94.429 -128.398 52.2635 
-102.196 -124.454 57.418 
-84.0305 -139.852 49.788 
-99.6665 -129.107 37.5597 
-158.66 9.5367 110.187 
-89.135 -188.4 60.8465 
108.7 -176.126 73.905 
-93.9295 -187.931 59.478 
-96.102 -188.428 37.2448 
93.385 -184.947 63.7775 
72.034 -184.451 37.1915 
89.348 -183.876 16.2101 
-96.143 -186.303 79.5785 
-96.1365 -186.289 79.5845 
-190.137 24.8944 103.946 
-42.4905 -187.721 20.5335 
3.5902 46.2147 7.1141 
33.644 53.2085 21.4895 
-68.201 50.3625 12.2677 
-148.514 114.117 61.7145 
-178.22 13.691 96.483 
41.1478 52.2915 8.13505 
-51.2735 107.109 6.6348 
-3.20147 45.9055 24.4886 
-9.9852 45.5995 41.8695 
-78.4315 -125.485 93.0455 
-67.6115 -108.058 105.785 
-164.479 35.4227 127.858 
-179.124 17.9904 84.888 
41.8115 -48.4548 143.63 
34.091 -63.0895 146.853 
84.6505 -173.93 112.394 
85.4335 -179.298 99.774 
34.3978 47.4188 73.287 
46.859 42.305 81.897 
34.2325 -160.733 120.251 
62.317 -154.242 125.62 
63.583 -44.1097 136.29 
-45.0243 -185.469 89.677 
61.298 -138.186 134.693 
45.901 -137.52 135.057 
68.701 -35.6898 129.671 
94.3855 -52.9505 125.426 
-98.2115 -73.938 110.372 
-27.0745 126.691 3.9001 
15.0282 50.3525 21.7248 
7.0085 49.5537 36.7873 
25.05 53.9995 39.3805 
16.5662 -175.874 66.942 
-77.309 -88.16 107.715 
83.078 -1.69694 102.383 
104.771 -0.474613 98.6385 
92.5905 -13.8174 112.928 
-109.355 106.175 64.857 
83.214 8.8207 99.0315 
-152.018 141.739 -62.7375 
-151.354 133.092 -46.8882 
-52.9195 -61.4315 112.305 
153.203 -50.5345 8.991 
-31.7812 -103.537 112.783 
149.37 -30.8835 3.07917 
-145.29 18.0567 126.523 
-39.5858 -93.037 106.696 
-25.8403 -109.149 108.801 
-21.9998 140.88 -38.724 
-46.0682 -108.47 105.655 
160.818 -116.073 78.4445 
148.07 -87.802 75.054 
-138.765 151.26 -115.585 
-150.032 170.602 -119.425 
59.0395 54.6835 17.6924 
76.007 52.3205 31.893 
-19.4914 -17.1422 111.091 
-19.8862 -26.4842 114.29 
71.2185 -71.312 137.891 
-20.8638 -74.9555 -85.0905 
8.60135 -41.5428 140.091 
178.74 -136.515 10.4617 
73.231 -92.388 137.786 
-7.57745 -160.894 130.413 
-124.385 60.986 114.645 
-140.993 66.463 127.959 
121.04 -47.6152 -42.7223 
114.557 -27.9665 -40.3755 
-18.7381 -58.778 -90.4065 
-115.233 27.5103 116.193 
-34.292 141.106 -10.4748 
-117.137 86.5475 94.754 
-127.455 90.5525 108.664 
83.295 26.5578 89.72 
33.1982 -183.312 122.058 
-87.174 77.7625 68.7695 
78.9165 -34.0617 -59.6 
145.794 -56.126 78.5265 
127.424 -126.131 95.814 
117.284 -117.495 106.816 
141 -121.526 79.983 
134.699 -125.213 90.063 
-76.518 44.93 74.1745 
105.623 -105.652 117.276 
155.327 -53.948 40.131 
170.668 -105.974 68.4725 
183.223 -123.605 66.4425 
159.87 -102.667 64.9475 
121.4 -153.639 88.5815 
105.938 -154.962 100.057 
117.212 -168.169 85.9625 
149.697 -27.751 29.0685 
-116.155 120.032 -95.1255 
-11.2369 7.92895 -43.8125 
-4.81143 29.8468 -22.2936 
-61.297 126.251 11.3713 
-56.767 121.842 11.9354 
-180.135 5.0109 39.449 
-187.056 17.4566 50.6845 
-178.492 12.16 66.097 
139.923 -47.391 -22.8801 
127.626 -134.486 -24.3834 
-83.7665 74.1465 10.5087 
-186.37 61.653 43.7158 
-16.8278 -111.339 -81.268 
132.725 -82.8295 -31.805 
150.84 -88.758 -3.1146 
144.893 -103.323 -10.8969 
69.7845 -163.812 -57.923 
-64.822 -106.702 -33.8833 
138.013 -4.23443 54.25 
158.128 -77.7665 38.1878 
167.828 -89.7635 27.8768 
-45.6533 31.182 -20.142 
-26.8528 37.675 0.408022 
-174.427 103.281 39.0125 
-150.111 106.073 88.9195 
180.486 -95.896 58.509 
-168.348 109.619 37.9622 
-158.064 113.436 46.2713 
-144.9 166.795 -102.781 
-134.805 145.951 -86.6085 
-125.349 -173.034 -10.3116 
-49.5067 47.5858 22.8837 
-80.1975 49.918 -9.2909 
-40.108 162.959 -22.77 
119.479 24.414 36.1408 
95.278 -16.0303 -45.2573 
57.016 49.4668 68.546 
18.3889 -109.966 -86.359 
29.7237 -134.688 -78.549 
10.3581 -134.208 -81.6675 
-34.1852 -119.723 97.6755 
-11.9837 -126.961 117.046 
-4.6905 -63.415 140.997 
-37.7082 127.384 -30.0012 
-32.3662 127.056 -13.0274 
-112.881 98.6155 -6.1138 
10.8595 -166.222 -62.9645 
-123.018 -20.0865 -36.582 
-134.404 -33.0075 -35.1302 
-167.437 -10.7701 71.422 
-160.038 -25.3123 83.027 
-24.7801 -44.8088 -76.1215 
-112.902 -164.09 36.4258 
-93.9085 -147.56 32.5775 
-35.5942 -66.393 -75.993 
34.9318 -169.995 -60.2955 
21.9564 -151.708 -70.76 
-52.458 -87.9755 -46.299 
-135.186 126.693 -107.837 
-122.896 126.849 -137.958 
-49.7668 -54.221 -64.586 
108.061 5.5453 -24.7535 
38.036 34.1808 -24.285 
55.794 21.8249 -38.6455 
-173.38 -40.6922 7.4079 
3.9976 -22.2449 -56.6855 
-96.088 -131.34 -2.23574 
-100.774 -139.326 12.985 
-147.829 107.965 -22.7384 
-159.648 -3.87055 -6.0476 
67.6875 -124.159 -72.0425 
52.3505 -166.93 -59.1055 
-38.863 -173.126 -69.9255 
97.313 3.15328 -32.9555 
100.971 17.7663 -20.1605 
21.4802 -14.3699 -54.88 
13.8547 -7.92425 -52.819 
-8.42075 -7.86475 -52.3115 
13.5006 7.85105 -45.565 
114.648 5.23585 -17.5231 
118.345 17.8209 -2.48482 
-33.398 10.2658 -41.0175 
3 3 237 823 
3 823 0 3 
3 7 755 727 
3 734 282 287 
3 2 867 237 
3 863 90 195 
3 397 239 256 
3 1 272 729 
3 37 287 113 
3 234 2 3 
3 4 15 5 
3 85 6 743 
3 283 318 840 
3 7 727 731 
3 196 8 390 
3 743 6 37 
3 92 310 276 
3 346 36 157 
3 332 9 447 
3 10 11 12 
3 726 13 733 
3 11 256 12 
3 309 267 308 
3 0 823 217 
3 614 735 14 
3 791 381 16 
3 5 15 720 
3 16 87 791 
3 65 89 17 
3 107 122 334 
3 510 509 18 
3 381 791 19 
3 20 539 422 
3 414 20 422 
3 21 828 227 
3 122 38 85 
3 300 534 293 
3 357 22 339 
3 19 798 362 
3 232 23 453 
3 35 145 648 
3 141 87 146 
3 24 130 740 
3 25 515 26 
3 141 143 87 
3 50 51 305 
3 463 27 444 
3 354 358 31 
3 745 627 746 
3 30 28 234 
3 739 105 24 
3 352 877 397 
3 362 798 29 
3 25 26 139 
3 660 238 320 
3 238 30 320 
3 122 85 854 
3 358 42 31 
3 32 145 35 
3 62 275 371 
3 33 720 34 
3 35 42 32 
3 25 139 465 
3 346 861 36 
3 6 287 37 
3 757 85 38 
3 183 253 469 
3 105 751 39 
3 151 751 747 
3 40 175 233 
3 734 287 6 
3 444 27 523 
3 41 462 770 
3 0 217 323 
3 42 358 47 
3 747 137 151 
3 254 702 43 
3 840 13 726 
3 589 460 588 
3 300 428 774 
3 44 45 745 
3 539 302 835 
3 200 151 752 
3 58 42 47 
3 46 84 125 
3 58 47 753 
3 478 153 862 
3 734 6 756 
3 287 282 48 
3 90 439 267 
3 282 80 48 
3 5 720 53 
3 203 788 99 
3 49 42 58 
3 764 799 159 
3 50 472 51 
3 42 49 32 
3 164 52 32 
3 53 720 586 
3 806 776 208 
3 589 62 337 
3 58 753 54 
3 60 49 58 
3 291 125 301 
3 55 39 760 
3 259 94 763 
3 732 56 343 
3 32 49 57 
3 393 446 292 
3 58 54 75 
3 57 164 32 
3 750 230 45 
3 63 55 46 
3 336 275 62 
3 484 429 485 
3 58 59 60 
3 60 81 49 
3 81 61 49 
3 835 302 536 
3 888 117 559 
3 589 357 62 
3 799 764 215 
3 63 46 291 
3 64 394 193 
3 62 357 336 
3 59 81 60 
3 79 164 61 
3 831 541 542 
3 164 79 160 
3 65 66 67 
3 65 67 766 
3 81 68 61 
3 61 68 79 
3 91 69 70 
3 349 299 336 
3 736 299 775 
3 79 71 160 
3 72 73 226 
3 349 336 357 
3 74 82 759 
3 75 767 59 
3 83 81 77 
3 76 368 371 
3 75 82 767 
3 39 55 63 
3 613 97 870 
3 83 77 78 
3 71 79 80 
3 55 764 159 
3 83 68 81 
3 68 342 79 
3 88 767 82 
3 83 98 68 
3 342 80 79 
3 41 770 768 
3 46 159 84 
3 64 216 293 
3 757 6 85 
3 88 82 772 
3 255 86 817 
3 146 87 771 
3 756 755 733 
3 95 299 349 
3 378 767 88 
3 98 342 68 
3 89 439 90 
3 271 91 70 
3 772 366 88 
3 80 342 48 
3 92 765 66 
3 93 292 94 
3 95 858 299 
3 858 775 299 
3 78 378 83 
3 740 133 137 
3 432 802 96 
3 175 9 231 
3 310 92 66 
3 317 97 613 
3 366 769 773 
3 744 125 84 
3 114 98 782 
3 99 788 110 
3 100 342 101 
3 124 379 341 
3 124 102 379 
3 475 343 476 
3 186 777 813 
3 559 117 551 
3 101 114 100 
3 103 615 244 
3 438 660 445 
3 244 615 104 
3 327 152 425 
3 105 319 24 
3 106 352 256 
3 744 743 125 
3 107 781 780 
3 115 806 150 
3 402 846 401 
3 566 108 441 
3 782 109 114 
3 203 128 230 
3 128 203 99 
3 534 513 546 
3 137 133 110 
3 282 734 316 
3 861 300 774 
3 761 764 760 
3 321 214 188 
3 861 774 478 
3 111 353 668 
3 112 113 48 
3 217 232 323 
3 100 301 113 
3 280 148 699 
3 126 100 114 
3 776 806 115 
3 854 744 84 
3 116 715 718 
3 888 567 117 
3 109 118 114 
3 118 126 114 
3 124 119 123 
3 478 170 120 
3 786 121 289 
3 334 122 854 
3 123 388 124 
3 37 301 125 
3 184 155 787 
3 127 129 361 
3 301 100 126 
3 45 128 127 
3 291 301 126 
3 129 99 133 
3 127 128 129 
3 361 129 130 
3 612 745 119 
3 119 745 45 
3 63 291 126 
3 131 132 621 
3 472 50 770 
3 63 126 118 
3 230 128 45 
3 128 99 129 
3 740 129 133 
3 498 671 552 
3 199 134 191 
3 741 207 627 
3 812 776 115 
3 211 749 197 
3 135 504 136 
3 137 110 784 
3 680 138 150 
3 472 502 51 
3 119 124 789 
3 55 159 46 
3 105 39 319 
3 791 87 143 
3 641 139 178 
3 143 790 791 
3 19 791 140 
3 795 141 146 
3 812 115 263 
3 141 795 143 
3 542 479 792 
3 142 280 8 
3 257 258 186 
3 790 143 147 
3 140 798 19 
3 144 199 204 
3 145 795 146 
3 8 280 466 
3 213 192 205 
3 732 754 206 
3 147 149 790 
3 280 718 148 
3 52 795 145 
3 284 828 21 
3 483 476 828 
3 206 153 796 
3 194 806 208 
3 154 149 795 
3 790 162 798 
3 29 798 797 
3 201 163 211 
3 154 795 52 
3 149 162 790 
3 150 138 115 
3 784 210 151 
3 120 152 153 
3 161 149 154 
3 797 281 29 
3 155 26 515 
3 188 425 187 
3 169 281 162 
3 187 425 152 
3 570 501 524 
3 503 429 156 
3 212 210 182 
3 161 168 149 
3 168 162 149 
3 157 513 346 
3 179 194 158 
3 52 145 32 
3 478 120 153 
3 770 50 305 
3 211 202 749 
3 799 84 159 
3 160 154 52 
3 160 161 154 
3 162 168 169 
3 212 199 144 
3 163 182 202 
3 164 160 52 
3 165 166 167 
3 26 184 139 
3 168 335 169 
3 169 259 281 
3 627 745 626 
3 259 169 801 
3 569 96 455 
3 170 599 120 
3 788 182 210 
3 200 213 762 
3 161 335 168 
3 69 621 171 
3 71 161 160 
3 172 173 174 
3 224 9 175 
3 179 199 212 
3 180 179 212 
3 213 205 761 
3 176 177 553 
3 553 177 20 
3 209 158 194 
3 525 271 420 
3 139 184 178 
3 263 115 138 
3 194 804 807 
3 179 180 805 
3 335 161 808 
3 181 165 205 
3 182 163 809 
3 266 257 810 
3 152 327 216 
3 776 812 811 
3 832 183 469 
3 741 190 207 
3 201 805 163 
3 204 191 213 
3 184 135 264 
3 171 17 185 
3 186 258 777 
3 153 206 754 
3 346 300 861 
3 120 187 152 
3 599 322 188 
3 204 199 191 
3 135 136 189 
3 17 271 70 
3 752 144 204 
3 815 190 816 
3 21 227 93 
3 191 173 192 
3 789 198 119 
3 193 56 821 
3 197 207 211 
3 805 194 179 
3 56 93 227 
3 56 393 93 
3 475 579 195 
3 351 818 396 
3 579 477 863 
3 196 748 8 
3 804 201 150 
3 179 158 199 
3 627 207 197 
3 263 138 680 
3 612 119 198 
3 134 199 158 
3 155 184 26 
3 202 182 788 
3 610 612 198 
3 777 158 209 
3 204 213 200 
3 258 158 777 
3 803 134 158 
3 814 150 201 
3 821 64 193 
3 807 806 194 
3 612 705 623 
3 230 202 203 
3 91 271 625 
3 204 200 752 
3 213 761 762 
3 751 151 200 
3 241 183 832 
3 205 165 167 
3 623 705 642 
3 192 173 181 
3 746 197 749 
3 510 453 592 
3 206 821 822 
3 815 207 190 
3 203 202 788 
3 208 209 194 
3 822 732 206 
3 212 144 210 
3 599 188 120 
3 163 202 211 
3 180 212 182 
3 191 192 213 
3 173 172 261 
3 206 64 821 
3 800 745 612 
3 192 181 205 
3 120 188 187 
3 206 216 64 
3 184 787 470 
3 214 425 188 
3 809 180 182 
3 167 215 205 
3 796 216 206 
3 276 310 171 
3 644 376 296 
3 223 233 217 
3 171 818 276 
3 818 171 621 
3 511 20 218 
3 73 219 248 
3 317 220 97 
3 376 28 238 
3 686 221 222 
3 106 276 818 
3 527 561 380 
3 223 217 824 
3 93 94 259 
3 171 310 279 
3 542 241 831 
3 41 241 826 
3 220 710 712 
3 386 303 224 
3 243 543 548 
3 522 543 249 
3 383 375 225 
3 247 248 831 
3 226 247 459 
3 244 243 103 
3 231 332 232 
3 295 441 432 
3 243 548 103 
3 476 56 227 
3 228 486 482 
3 229 420 271 
3 229 17 89 
3 749 202 230 
3 231 232 829 
3 691 103 607 
3 768 183 41 
3 231 9 332 
3 233 232 217 
3 223 403 233 
3 247 831 242 
3 234 3 235 
3 3 0 236 
3 237 825 823 
3 404 724 383 
3 222 221 725 
3 352 106 818 
3 238 28 30 
3 145 146 650 
3 239 12 256 
3 832 242 240 
3 240 241 832 
3 247 242 459 
3 459 242 833 
3 171 279 17 
3 454 491 434 
3 542 467 241 
3 243 244 245 
3 103 548 607 
3 248 541 831 
3 691 628 246 
3 183 241 41 
3 247 73 248 
3 249 72 226 
3 424 250 875 
3 607 548 251 
3 770 462 472 
3 30 234 882 
3 252 40 225 
3 754 732 36 
3 803 258 266 
3 172 803 266 
3 380 561 350 
3 253 257 837 
3 364 254 622 
3 476 227 828 
3 522 827 526 
3 266 255 172 
3 255 261 172 
3 352 397 256 
3 829 175 231 
3 257 266 258 
3 801 21 259 
3 532 537 260 
3 817 261 255 
3 505 508 262 
3 263 264 812 
3 305 836 261 
3 622 254 520 
3 178 264 263 
3 189 812 265 
3 449 9 841 
3 265 135 189 
3 21 93 259 
3 312 165 181 
3 810 255 266 
3 371 317 76 
3 178 184 264 
3 267 306 308 
3 669 268 269 
3 1 386 270 
3 29 272 362 
3 625 271 525 
3 843 812 189 
3 136 838 189 
3 362 272 842 
3 838 186 273 
3 273 189 838 
3 319 326 24 
3 504 838 136 
3 449 267 439 
3 869 794 872 
3 729 307 306 
3 845 306 274 
3 404 403 223 
3 56 193 393 
3 275 735 681 
3 555 540 547 
3 469 253 838 
3 106 256 298 
3 847 276 106 
3 427 618 277 
3 847 92 276 
3 495 849 283 
3 284 286 278 
3 94 308 307 
3 279 310 65 
3 284 335 285 
3 735 614 681 
3 728 849 495 
3 314 272 29 
3 116 718 280 
3 314 29 281 
3 286 304 282 
3 283 849 318 
3 808 285 335 
3 282 304 80 
3 341 379 348 
3 284 285 286 
3 287 48 113 
3 288 289 378 
3 290 846 402 
3 828 728 489 
3 840 318 13 
3 125 291 46 
3 393 394 446 
3 446 309 292 
3 90 863 89 
3 292 93 393 
3 259 314 281 
3 65 400 89 
3 328 293 216 
3 403 40 233 
3 308 292 309 
3 89 400 439 
3 314 307 272 
3 454 294 295 
3 842 270 362 
3 682 389 364 
3 1 303 386 
3 28 2 234 
3 80 304 71 
3 296 238 660 
3 297 298 846 
3 3 2 237 
3 299 735 336 
3 185 69 171 
3 308 94 292 
3 300 328 851 
3 836 313 312 
3 113 301 37 
3 305 313 836 
3 176 536 302 
3 274 267 449 
3 495 283 840 
3 729 303 1 
3 285 71 304 
3 285 304 286 
3 166 165 315 
3 305 311 313 
3 306 307 308 
3 267 309 90 
3 66 65 310 
3 51 311 305 
3 313 311 852 
3 852 329 315 
3 312 313 315 
3 763 314 259 
3 898 311 51 
3 421 170 478 
3 513 732 343 
3 236 235 3 
3 898 324 311 
3 311 324 852 
3 315 329 166 
3 613 76 317 
3 852 324 329 
3 39 63 319 
3 316 286 282 
3 452 0 323 
3 324 333 329 
3 275 220 317 
3 13 318 734 
3 118 319 63 
3 320 30 882 
3 321 188 322 
3 9 449 447 
3 324 458 333 
3 65 17 279 
3 323 232 453 
3 458 324 325 
3 799 166 331 
3 326 118 109 
3 327 328 216 
3 329 333 330 
3 786 326 121 
3 11 779 846 
3 330 166 329 
3 331 334 854 
3 331 84 799 
3 232 332 23 
3 781 333 458 
3 781 334 333 
3 284 21 335 
3 10 779 11 
3 275 336 735 
3 337 368 338 
3 339 348 357 
3 859 340 366 
3 611 341 348 
3 388 859 124 
3 48 342 112 
3 343 56 476 
3 355 288 347 
3 859 388 340 
3 121 109 369 
3 95 102 344 
3 10 12 239 
3 198 341 611 
3 260 537 417 
3 766 345 400 
3 534 300 346 
3 337 62 371 
3 366 355 347 
3 754 36 862 
3 387 381 19 
3 379 95 349 
3 348 379 349 
3 344 858 95 
3 387 19 363 
3 118 326 319 
3 648 31 35 
3 378 369 83 
3 350 547 380 
3 351 877 352 
3 353 354 392 
3 361 355 356 
3 353 392 668 
3 357 348 349 
3 358 354 353 
3 360 359 662 
3 355 361 288 
3 592 574 448 
3 360 473 359 
3 533 530 374 
3 347 378 88 
3 737 637 646 
3 539 835 423 
3 127 340 388 
3 356 127 361 
3 737 381 637 
3 87 737 646 
3 347 288 378 
3 220 681 688 
3 19 362 363 
3 364 389 365 
3 121 326 109 
3 860 361 130 
3 773 859 366 
3 360 676 367 
3 368 76 674 
3 224 175 386 
3 870 473 360 
3 783 369 109 
3 270 363 362 
3 376 370 2 
3 337 371 368 
3 31 372 354 
3 367 870 360 
3 644 373 376 
3 374 527 865 
3 381 375 637 
3 124 859 102 
3 376 373 370 
3 2 370 377 
3 377 867 2 
3 378 289 369 
3 429 484 451 
3 373 372 370 
3 379 102 95 
3 289 121 369 
3 517 866 380 
3 711 220 688 
3 275 681 220 
3 387 252 375 
3 381 387 375 
3 418 382 429 
3 340 355 366 
3 422 539 423 
3 868 648 867 
3 637 383 724 
3 825 237 867 
3 844 841 303 
3 366 347 88 
3 473 870 384 
3 384 885 473 
3 830 411 385 
3 40 386 175 
3 483 228 420 
3 363 386 252 
3 387 363 252 
3 386 363 270 
3 388 45 127 
3 883 484 895 
3 389 390 391 
3 584 519 528 
3 373 392 372 
3 535 64 293 
3 393 193 394 
3 367 613 870 
3 417 395 606 
3 392 354 372 
3 499 294 896 
3 396 132 351 
3 397 399 239 
3 397 877 398 
3 399 779 10 
3 876 877 351 
3 398 778 399 
3 399 397 398 
3 399 778 779 
3 132 876 351 
3 886 439 400 
3 401 778 402 
3 876 406 778 
3 778 406 402 
3 403 404 383 
3 405 876 132 
3 876 405 406 
3 671 604 864 
3 131 405 132 
3 373 644 656 
3 296 376 238 
3 405 131 406 
3 421 478 774 
3 407 493 408 
3 131 409 406 
3 406 409 402 
3 883 454 434 
3 644 296 643 
3 131 69 410 
3 410 409 131 
3 409 92 402 
3 416 411 830 
3 371 275 317 
3 480 566 881 
3 598 415 830 
3 411 395 872 
3 97 712 871 
3 830 415 416 
3 364 365 254 
3 869 872 412 
3 97 220 712 
3 383 225 403 
3 480 881 474 
3 598 413 415 
3 414 501 570 
3 443 413 598 
3 415 424 416 
3 416 395 411 
3 395 417 872 
3 878 417 418 
3 409 345 765 
3 414 570 419 
3 229 863 420 
3 413 423 415 
3 375 252 225 
3 414 413 442 
3 511 218 419 
3 414 422 413 
3 415 423 424 
3 421 599 170 
3 69 91 345 
3 422 423 413 
3 835 424 423 
3 870 97 871 
3 425 214 428 
3 426 891 879 
3 427 511 687 
3 471 474 496 
3 403 225 40 
3 428 327 425 
3 503 485 429 
3 345 91 431 
3 594 430 540 
3 375 383 637 
3 431 400 345 
3 243 563 72 
3 91 625 886 
3 295 432 454 
3 516 433 593 
3 293 328 300 
3 533 593 436 
3 883 434 435 
3 436 433 882 
3 540 430 517 
3 436 450 533 
3 450 530 533 
3 883 435 484 
3 880 881 499 
3 294 454 893 
3 376 2 28 
3 508 505 820 
3 437 553 512 
3 176 553 884 
3 523 438 444 
3 625 448 886 
3 439 886 440 
3 40 252 386 
3 441 802 432 
3 116 142 723 
3 882 235 450 
3 530 450 887 
3 887 509 530 
3 408 896 407 
3 442 413 443 
3 473 553 437 
3 884 701 176 
3 440 449 439 
3 394 535 546 
3 359 473 848 
3 438 445 444 
3 445 320 433 
3 320 882 433 
3 523 659 438 
3 453 574 592 
3 546 475 446 
3 446 394 546 
3 332 447 448 
3 447 449 448 
3 309 446 475 
3 885 553 473 
3 235 452 450 
3 23 574 453 
3 23 332 574 
3 429 451 412 
3 452 323 544 
3 323 453 544 
3 445 660 320 
3 234 235 882 
3 454 432 491 
3 455 456 569 
3 479 456 457 
3 726 7 493 
3 435 434 605 
3 826 462 41 
3 471 458 325 
3 833 506 459 
3 262 840 505 
3 432 96 491 
3 723 142 460 
3 457 793 479 
3 7 496 880 
3 462 793 461 
3 853 426 793 
3 524 501 890 
3 462 467 793 
3 463 545 582 
3 582 545 536 
3 464 521 465 
3 390 8 466 
3 792 467 542 
3 426 853 891 
3 351 352 818 
3 321 468 214 
3 506 832 469 
3 470 504 135 
3 780 471 496 
3 461 472 462 
3 848 473 437 
3 465 521 25 
3 500 480 474 
3 892 325 898 
3 195 90 309 
3 426 879 897 
3 453 510 544 
3 475 195 309 
3 863 483 420 
3 442 443 501 
3 73 549 219 
3 819 503 899 
3 476 483 477 
3 593 517 516 
3 896 819 407 
3 862 861 478 
3 219 456 479 
3 408 499 896 
3 838 504 469 
3 623 758 585 
3 528 482 490 
3 480 891 108 
3 481 605 434 
3 51 502 898 
3 482 487 490 
3 864 873 671 
3 228 483 488 
3 484 485 895 
3 495 486 850 
3 486 487 482 
3 899 508 819 
3 488 489 850 
3 487 554 490 
3 890 583 524 
3 491 481 434 
3 486 492 487 
3 435 869 484 
3 7 880 493 
3 324 898 325 
3 492 554 487 
3 840 839 495 
3 696 494 698 
3 541 219 479 
3 495 492 486 
3 565 554 492 
3 565 538 554 
3 851 428 300 
3 731 496 7 
3 72 560 73 
3 849 728 497 
3 604 671 498 
3 566 499 881 
3 471 500 474 
3 219 541 248 
3 502 472 426 
3 495 839 492 
3 414 442 501 
3 848 437 512 
3 325 500 471 
3 534 535 293 
3 284 278 497 
3 837 838 253 
3 897 502 426 
3 492 839 565 
3 156 565 503 
3 409 765 92 
3 469 504 506 
3 505 726 493 
3 518 506 504 
3 507 839 508 
3 840 726 505 
3 394 64 535 
3 530 509 529 
3 510 556 531 
3 527 490 561 
3 511 512 553 
3 343 475 513 
3 25 514 515 
3 515 514 518 
3 516 517 463 
3 514 506 518 
3 391 390 466 
3 519 228 482 
3 250 562 260 
3 254 43 520 
3 582 536 176 
3 509 531 584 
3 522 25 521 
3 25 522 514 
3 582 523 27 
3 524 583 698 
3 459 506 514 
3 556 592 525 
3 523 582 701 
3 521 464 522 
3 509 510 531 
3 526 514 522 
3 27 463 582 
3 527 528 490 
3 529 374 530 
3 531 556 519 
3 555 547 532 
3 866 533 374 
3 534 546 535 
3 594 536 545 
3 463 517 430 
3 540 380 547 
3 418 417 537 
3 538 350 561 
3 302 539 176 
3 594 540 555 
3 541 479 542 
3 555 260 562 
3 548 543 464 
3 18 544 510 
3 545 463 594 
3 475 546 513 
3 444 516 463 
3 547 350 418 
3 464 251 548 
3 549 551 219 
3 645 611 22 
3 560 549 73 
3 520 695 550 
3 350 538 382 
3 418 350 382 
3 563 558 72 
3 72 558 560 
3 560 559 549 
3 219 551 456 
3 476 477 579 
3 552 520 550 
3 511 553 20 
3 538 561 554 
3 562 594 555 
3 539 20 177 
3 519 556 525 
3 698 494 557 
3 558 559 560 
3 559 551 549 
3 245 563 243 
3 537 532 418 
3 457 853 793 
3 802 441 853 
3 569 456 551 
3 554 561 490 
3 536 562 835 
3 427 512 511 
3 563 888 558 
3 558 888 559 
3 691 104 615 
3 564 551 117 
3 551 564 569 
3 156 538 565 
3 104 834 244 
3 108 566 480 
3 834 568 563 
3 564 117 567 
3 295 566 441 
3 104 571 834 
3 568 888 563 
3 748 460 8 
3 698 557 524 
3 96 569 564 
3 527 374 584 
3 524 557 570 
3 575 888 572 
3 564 573 96 
3 295 294 566 
3 889 571 873 
3 889 578 568 
3 572 578 856 
3 96 573 491 
3 499 566 294 
3 567 581 564 
3 332 448 574 
3 895 503 819 
3 856 575 572 
3 573 577 576 
3 177 176 539 
3 630 873 571 
3 577 581 580 
3 260 555 532 
3 575 855 581 
3 856 578 874 
3 547 418 532 
3 579 475 476 
3 855 580 581 
3 701 582 176 
3 53 694 5 
3 583 604 498 
3 531 519 584 
3 5 694 585 
3 874 857 856 
3 856 855 575 
3 520 43 695 
3 573 481 491 
3 586 719 53 
3 723 587 613 
3 576 481 573 
3 894 893 883 
3 588 357 589 
3 857 590 855 
3 855 590 591 
3 525 592 625 
3 874 597 857 
3 593 533 866 
3 228 525 420 
3 562 536 594 
3 430 594 463 
3 602 580 595 
3 601 605 481 
3 604 596 864 
3 597 864 596 
3 595 591 830 
3 602 601 580 
3 519 525 228 
3 155 515 518 
3 443 598 597 
3 510 592 556 
3 399 10 239 
3 597 598 857 
3 598 590 857 
3 517 380 540 
3 468 599 421 
3 468 322 599 
3 468 321 322 
3 601 794 605 
3 543 522 464 
3 374 529 584 
3 865 866 374 
3 671 600 552 
3 601 602 603 
3 603 794 601 
3 598 830 590 
3 527 584 528 
3 517 593 866 
3 584 529 509 
3 468 421 609 
3 513 534 346 
3 604 443 596 
3 385 602 830 
3 277 512 427 
3 428 214 468 
3 604 583 443 
3 596 443 597 
3 794 869 605 
3 606 875 260 
3 528 519 482 
3 895 485 503 
3 607 608 628 
3 609 428 468 
3 610 198 611 
3 800 612 706 
3 125 743 37 
3 719 629 53 
3 613 587 76 
3 464 655 251 
3 627 651 619 
3 632 634 586 
3 629 619 617 
3 813 843 186 
3 614 759 678 
3 615 103 691 
3 390 682 196 
3 680 616 669 
3 612 610 645 
3 619 651 617 
3 679 663 618 
3 632 721 251 
3 619 629 742 
3 689 657 711 
3 824 825 223 
3 223 825 404 
3 34 673 608 
3 680 150 616 
3 629 617 708 
3 670 620 4 
3 620 670 692 
3 131 621 69 
3 693 622 624 
3 585 631 623 
3 641 680 669 
3 624 622 520 
3 589 337 690 
3 448 625 592 
3 724 404 738 
3 626 651 627 
3 673 693 633 
3 628 673 633 
3 738 825 640 
3 716 629 719 
3 571 246 630 
3 251 721 607 
3 708 631 585 
3 5 585 670 
3 628 633 246 
3 633 624 653 
3 632 33 721 
3 800 706 709 
3 825 867 640 
3 246 633 600 
3 630 246 600 
3 634 669 635 
3 730 638 724 
3 692 636 364 
3 637 638 646 
3 660 643 296 
3 4 620 673 
3 269 641 669 
3 639 638 640 
3 867 639 640 
3 867 648 639 
3 693 692 622 
3 139 641 465 
3 646 638 714 
3 647 661 660 
3 642 196 636 
3 600 653 552 
3 643 656 644 
3 610 611 645 
3 620 692 693 
3 716 190 629 
3 656 643 703 
3 714 649 646 
3 742 741 619 
3 647 658 661 
3 648 649 639 
3 649 650 646 
3 608 673 628 
3 617 651 707 
3 659 523 700 
3 657 647 652 
3 392 373 656 
3 629 708 53 
3 653 520 552 
3 700 654 659 
3 652 654 657 
3 658 664 661 
3 465 655 464 
3 664 665 661 
3 703 665 656 
3 668 392 656 
3 633 653 600 
3 145 649 648 
3 647 657 658 
3 657 664 658 
3 660 438 647 
3 771 650 146 
3 668 656 665 
3 634 716 719 
3 145 650 649 
3 659 647 438 
3 655 632 251 
3 662 359 848 
3 104 246 571 
3 758 692 670 
3 636 196 682 
3 618 662 848 
3 660 661 643 
3 701 885 654 
3 662 676 360 
3 657 689 664 
3 664 666 665 
3 667 668 665 
3 268 632 655 
3 465 268 655 
3 268 634 632 
3 657 654 683 
3 676 662 663 
3 22 357 748 
3 664 689 666 
3 666 667 665 
3 666 677 667 
3 678 667 677 
3 667 678 668 
3 668 678 111 
3 669 634 268 
3 635 716 634 
3 683 713 657 
3 4 5 670 
3 444 445 433 
3 663 718 676 
3 688 666 689 
3 671 873 600 
3 672 367 676 
3 672 613 367 
3 691 246 104 
3 663 679 718 
3 673 620 693 
3 338 76 587 
3 679 618 685 
3 76 338 674 
3 677 666 688 
3 642 704 675 
3 685 618 427 
3 718 672 676 
3 618 663 662 
3 681 677 688 
3 718 717 672 
3 708 585 694 
3 713 683 885 
3 687 570 557 
3 687 684 427 
3 587 723 338 
3 677 614 678 
3 684 685 427 
3 148 718 679 
3 263 680 178 
3 614 677 681 
3 630 600 873 
3 636 682 364 
3 687 557 494 
3 148 679 685 
3 885 683 654 
3 654 652 659 
3 686 684 687 
3 684 222 685 
3 222 148 685 
3 816 716 616 
3 696 686 687 
3 659 652 647 
3 722 116 717 
3 711 688 689 
3 494 696 687 
3 690 338 723 
3 758 642 636 
3 607 628 691 
3 674 338 368 
3 692 364 622 
3 693 624 633 
3 690 337 338 
3 614 14 736 
3 694 53 708 
3 695 686 696 
3 697 148 222 
3 741 627 619 
3 607 721 608 
3 550 696 698 
3 695 43 686 
3 460 690 723 
3 583 498 698 
3 550 695 696 
3 460 589 690 
3 538 156 382 
3 699 148 697 
3 498 552 698 
3 552 550 698 
3 725 699 697 
3 391 466 699 
3 8 460 142 
3 624 520 653 
3 675 196 642 
3 654 700 701 
3 575 567 888 
3 254 725 702 
3 280 142 116 
3 391 254 365 
3 391 365 389 
3 389 682 390 
3 701 700 523 
3 665 703 661 
3 725 43 702 
3 43 725 221 
3 221 686 43 
3 725 697 222 
3 222 684 686 
3 661 703 643 
3 196 675 748 
3 675 704 748 
3 704 22 748 
3 704 645 22 
3 704 642 645 
3 645 642 705 
3 705 612 645 
3 623 706 612 
3 758 623 642 
3 623 709 706 
3 623 631 709 
3 631 707 709 
3 631 708 707 
3 707 651 709 
3 651 800 709 
3 708 617 707 
3 649 714 639 
3 220 711 710 
3 711 713 710 
3 711 657 713 
3 713 712 710 
3 713 871 712 
3 713 885 871 
3 639 714 638 
3 699 466 280 
3 715 116 722 
3 497 828 284 
3 716 635 616 
3 715 717 718 
3 719 586 634 
3 616 635 669 
3 34 720 15 
3 720 33 586 
3 15 4 34 
3 33 632 586 
3 34 608 33 
3 608 721 33 
3 4 673 34 
3 725 254 391 
3 613 672 116 
3 672 717 116 
3 825 738 404 
3 715 722 717 
3 613 116 723 
3 738 730 724 
3 699 725 391 
3 726 755 7 
3 733 755 726 
3 757 727 755 
3 38 727 757 
3 828 497 728 
3 845 729 306 
3 839 507 565 
3 307 729 272 
3 638 730 640 
3 780 727 38 
3 780 731 727 
3 496 731 780 
3 732 157 36 
3 513 157 732 
3 734 733 13 
3 733 734 756 
3 299 14 735 
3 736 14 299 
3 737 16 381 
3 87 16 737 
3 38 107 780 
3 122 107 38 
3 640 730 738 
3 781 107 334 
3 452 18 509 
3 544 18 452 
3 611 339 22 
3 348 339 611 
3 137 739 740 
3 105 739 137 
3 740 739 24 
3 741 742 190 
3 743 854 85 
3 744 854 743 
3 746 44 745 
3 197 746 627 
3 749 44 746 
3 45 44 750 
3 190 742 629 
3 42 35 31 
3 105 747 751 
3 137 747 105 
3 358 111 47 
3 353 111 358 
3 748 588 460 
3 357 588 748 
3 749 750 44 
3 230 750 749 
3 39 200 762 
3 751 200 39 
3 210 752 151 
3 144 752 210 
3 111 753 47 
3 678 753 111 
3 754 862 153 
3 565 507 899 
3 757 756 6 
3 755 756 757 
3 692 758 636 
3 759 753 678 
3 777 208 776 
3 209 208 777 
3 759 54 753 
3 75 59 58 
3 762 760 39 
3 761 760 762 
3 307 763 94 
3 314 763 307 
3 61 57 49 
3 164 57 61 
3 759 75 54 
3 585 758 670 
3 761 215 764 
3 215 761 205 
3 765 67 66 
3 766 400 65 
3 765 766 67 
3 345 766 765 
3 775 74 736 
3 82 74 775 
3 759 736 74 
3 736 759 614 
3 680 641 178 
3 82 75 759 
3 59 77 81 
3 767 77 59 
3 767 78 77 
3 378 78 767 
3 86 768 770 
3 86 253 768 
3 775 772 82 
3 366 772 769 
3 770 817 86 
3 305 817 770 
3 646 771 87 
3 650 771 646 
3 775 769 772 
3 775 858 773 
3 428 609 774 
3 129 740 130 
3 773 769 775 
3 859 773 858 
3 83 782 98 
3 109 782 783 
3 98 101 342 
3 114 101 98 
3 776 813 777 
3 811 813 776 
3 342 113 112 
3 100 113 342 
3 779 401 846 
3 778 401 779 
3 458 471 780 
3 780 781 458 
3 83 783 782 
3 369 783 83 
3 110 133 99 
3 784 151 137 
3 318 316 734 
3 849 316 318 
3 55 760 764 
3 774 609 421 
3 24 786 130 
3 385 785 602 
3 289 130 786 
3 289 288 860 
3 45 123 119 
3 388 123 45 
3 602 785 603 
3 326 786 24 
3 518 787 155 
3 470 135 184 
3 788 784 110 
3 210 784 788 
3 341 789 124 
3 198 789 341 
3 790 140 791 
3 798 140 790 
3 793 792 479 
3 467 792 793 
3 794 603 872 
3 158 258 803 
3 795 147 143 
3 149 147 795 
3 152 796 153 
3 216 796 152 
3 162 797 798 
3 281 797 162 
3 382 156 429 
3 872 603 785 
3 799 167 166 
3 215 167 799 
3 800 626 745 
3 651 626 800 
3 335 801 169 
3 21 801 335 
3 802 455 96 
3 456 455 802 
3 191 174 173 
3 134 174 191 
3 172 134 803 
3 174 134 172 
3 805 804 194 
3 201 804 805 
3 150 807 804 
3 806 807 150 
3 71 808 161 
3 285 808 71 
3 805 809 163 
3 180 809 805 
3 253 810 257 
3 86 810 253 
3 843 811 812 
3 813 811 843 
3 70 185 17 
3 69 185 70 
3 616 814 816 
3 150 814 616 
3 201 815 814 
3 211 815 201 
3 816 814 815 
3 716 816 190 
3 850 228 488 
3 261 817 305 
3 621 396 818 
3 132 396 621 
3 508 407 819 
3 820 407 508 
3 591 595 855 
3 207 815 211 
3 855 595 580 
3 255 810 86 
3 56 822 821 
3 732 822 56 
3 518 470 787 
3 504 470 518 
3 414 218 20 
3 419 218 414 
3 830 602 595 
3 73 247 226 
3 228 850 486 
3 183 768 253 
3 823 824 217 
3 825 824 823 
3 467 826 241 
3 462 826 467 
3 226 827 249 
3 459 827 226 
3 249 827 522 
3 243 249 543 
3 489 488 828 
3 17 229 271 
3 828 488 483 
3 863 229 89 
3 233 829 232 
3 175 829 233 
3 452 236 0 
3 235 236 452 
3 830 591 590 
3 72 249 243 
3 831 240 242 
3 241 240 831 
3 832 833 242 
3 506 833 832 
3 834 245 244 
3 563 245 834 
3 835 250 424 
3 562 250 835 
3 260 875 250 
3 260 417 606 
3 312 181 836 
3 853 441 108 
3 173 836 181 
3 261 836 173 
3 186 837 257 
3 838 837 186 
3 459 526 827 
3 514 526 459 
3 839 262 508 
3 840 262 839 
3 264 265 812 
3 135 265 264 
3 224 841 9 
3 303 841 224 
3 465 269 268 
3 641 269 465 
3 1 842 272 
3 270 842 1 
3 843 273 186 
3 189 273 843 
3 449 844 274 
3 841 844 449 
3 303 845 844 
3 729 845 303 
3 274 844 845 
3 267 274 306 
3 11 298 256 
3 846 298 11 
3 106 290 847 
3 846 290 297 
3 402 847 290 
3 92 847 402 
3 848 277 618 
3 512 277 848 
3 849 278 286 
3 497 278 849 
3 481 576 601 
3 316 849 286 
3 106 297 290 
3 298 297 106 
3 495 489 728 
3 850 489 495 
3 327 851 328 
3 428 851 327 
3 312 315 165 
3 597 874 864 
3 315 313 852 
3 853 108 891 
3 869 435 605 
3 84 331 854 
3 581 567 575 
3 330 331 166 
3 334 330 333 
3 863 195 579 
3 855 856 857 
3 331 330 334 
3 859 344 102 
3 858 344 859 
3 860 130 289 
3 361 860 288 
3 861 862 36 
3 863 477 483 
3 340 356 355 
3 127 356 340 
3 864 874 873 
3 372 31 648 
3 380 865 527 
3 866 865 380 
3 372 377 370 
3 867 377 868 
3 372 868 377 
3 648 868 372 
3 869 451 484 
3 412 451 869 
3 871 384 870 
3 885 384 871 
3 872 385 411 
3 785 385 872 
3 873 874 578 
3 638 637 724 
3 606 395 416 
3 875 606 424 
3 876 398 877 
3 778 398 876 
3 880 408 493 
3 601 576 580 
3 345 410 69 
3 409 410 345 
3 580 576 577 
3 416 424 606 
3 418 412 878 
3 412 418 429 
3 872 878 412 
3 417 878 872 
3 687 419 570 
3 419 687 511 
3 892 879 891 
3 892 898 897 
3 886 431 91 
3 400 431 886 
3 880 474 881 
3 496 474 880 
3 581 577 564 
3 450 436 882 
3 564 577 573 
3 433 436 593 
3 883 893 454 
3 883 895 894 
3 493 820 505 
3 820 493 407 
3 885 884 553 
3 701 884 885 
3 448 440 886 
3 449 440 448 
3 578 572 568 
3 433 516 444 
3 452 887 450 
3 509 887 452 
3 568 572 888 
3 499 408 880 
3 802 457 456 
3 578 889 873 
3 571 889 834 
3 325 892 500 
3 834 889 568 
3 853 457 802 
3 426 461 793 
3 472 461 426 
3 443 890 501 
3 583 890 443 
3 892 480 500 
3 891 480 892 
3 294 894 896 
3 893 894 294 
3 895 896 894 
3 819 896 895 
3 897 879 892 
3 502 897 898 
3 565 899 503 
3 508 899 507 
