<?xml version="1.0" encoding="UTF-8"?>
<svg id="Layer_1" xmlns="http://www.w3.org/2000/svg" width="1024" height="768" version="1.1" viewBox="0 0 1024 768">
  <!-- Generator: Adobe Illustrator 29.6.1, SVG Export Plug-In . SVG Version: 2.1.1 Build 9)  -->
  <rect x="620" y="239.9" width="86.1" height="86.1"/>
  <rect x="620" y="141.9" width="86.1" height="86.1"/>
  <rect x="716.1" y="141.9" width="86.1" height="86.1"/>
  <rect x="716.1" y="333.9" width="86.1" height="86.1"/>
  <rect x="812.3" y="141.9" width="86.1" height="86.1"/>
  <rect x="291.3" y="141.9" width="86.1" height="86.1"/>
  <rect x="388" y="239.9" width="86.1" height="86.1"/>
  <rect x="484.2" y="333.9" width="86.1" height="86.1"/>
  <rect x="388" y="431.9" width="86.1" height="86.1"/>
  <rect x="195.7" y="239.9" width="86.1" height="86.1"/>
  <rect x="99.6" y="333.9" width="86.1" height="86.1"/>
  <rect x="195.7" y="431.9" width="86.1" height="86.1"/>
  <rect x="291.3" y="526.2" width="86.1" height="86.1"/>
  <rect x="620" y="333.9" width="86.1" height="86.1"/>
  <rect x="620" y="431.9" width="86.1" height="86.1"/>
  <rect x="620" y="526.2" width="86.1" height="86.1"/>
</svg>