{
  "asset": {
    "generator": "Khronos glTF Blender I/O v1.6.16",
    "version": "2.0"
  },
  "scene": 0,
  "scenes": [
    {
      "name": "Scene",
      "nodes": [
        0
      ]
    }
  ],
  "nodes": [
    {
      "mesh": 0,
      "name": "korean_public_payphone_01",
      "scale": [
        0.009999999776482582,
        0.009999999776482582,
        0.009999999776482582
      ]
    }
  ],
  "materials": [
    {
      "doubleSided": true,
      "name": "korean_public_payphone_01",
      "normalTexture": {
        "index": 0
      },
      "pbrMetallicRoughness": {
        "baseColorTexture": {
          "index": 1
        },
        "metallicRoughnessTexture": {
          "index": 2
        }
      }
    }
  ],
  "meshes": [
    {
      "name": "메쉬",
      "primitives": [
        {
          "attributes": {
            "POSITION": 0,
            "NORMAL": 1,
            "TEXCOORD_0": 2
          },
          "indices": 3,
          "material": 0
        }
      ]
    }
  ],
  "textures": [
    {
      "sampler": 0,
      "source": 0
    },
    {
      "sampler": 0,
      "source": 1
    },
    {
      "sampler": 0,
      "source": 2
    }
  ],
  "images": [
    {
      "mimeType": "image/jpeg",
      "name": "korean_public_payphone_01_nor_gl",
      "uri": "textures/korean_public_payphone_01_nor_gl_1k.jpg"
    },
    {
      "mimeType": "image/jpeg",
      "name": "korean_public_payphone_01_diff",
      "uri": "textures/korean_public_payphone_01_diff_1k.jpg"
    },
    {
      "mimeType": "image/jpeg",
      "name": "korean_public_payphone_01_metal-korean_public_payphone_01_rough",
      "uri": "textures/korean_public_payphone_01_arm_1k.jpg"
    }
  ],
  "accessors": [
    {
      "bufferView": 0,
      "componentType": 5126,
      "count": 142957,
      "max": [
        14.452638626098633,
        73.77959442138672,
        19.318130493164062
      ],
      "min": [
        -25.604341506958008,
        -0.19367599487304688,
        -10.803447723388672
      ],
      "type": "VEC3"
    },
    {
      "bufferView": 1,
      "componentType": 5126,
      "count": 142957,
      "type": "VEC3"
    },
    {
      "bufferView": 2,
      "componentType": 5126,
      "count": 142957,
      "type": "VEC2"
    },
    {
      "bufferView": 3,
      "componentType": 5125,
      "count": 144396,
      "type": "SCALAR"
    }
  ],
  "bufferViews": [
    {
      "buffer": 0,
      "byteLength": 1715484,
      "byteOffset": 0
    },
    {
      "buffer": 0,
      "byteLength": 1715484,
      "byteOffset": 1715484
    },
    {
      "buffer": 0,
      "byteLength": 1143656,
      "byteOffset": 3430968
    },
    {
      "buffer": 0,
      "byteLength": 577584,
      "byteOffset": 4574624
    }
  ],
  "samplers": [
    {
      "magFilter": 9729,
      "minFilter": 9987
    }
  ],
  "buffers": [
    {
      "byteLength": 5152208,
      "uri": "korean_public_payphone_01.bin"
    }
  ]
}